<svg xmlns="http://www.w3.org/2000/svg" xmlns:xlink="http://www.w3.org/1999/xlink" width="1200" zoomAndPan="magnify" viewBox="0 0 900 899.99999" height="1200" preserveAspectRatio="xMidYMid meet" version="1.0"><defs><clipPath id="36fb19659e"><path d="M 270 270 L 630 270 L 630 630 L 270 630 Z M 270 270 " clip-rule="nonzero"/></clipPath></defs><g clip-path="url(#36fb19659e)"><path fill="#86d008" d="M 449.925781 630 C 350.683594 630 269.925781 549.265625 269.925781 450 C 269.925781 350.734375 350.660156 270.023438 449.925781 270.023438 C 549.191406 270.023438 629.925781 350.757812 629.925781 450.023438 C 629.925781 549.289062 549.167969 630 449.925781 630 Z M 449.925781 630 " fill-opacity="1" fill-rule="nonzero"/></g><path fill="#5dad07" d="M 547.039062 369.734375 L 384.285156 532.492188 L 479.394531 627.601562 C 563.863281 613.644531 628.664062 540.679688 629.925781 452.597656 Z M 547.039062 369.734375 " fill-opacity="1" fill-rule="nonzero"/><path fill="#ffffff" d="M 550.652344 373.226562 C 540.261719 361.941406 530.832031 354.347656 519.550781 364.714844 L 404.324219 470.957031 L 375.230469 437.703125 C 365.132812 426.171875 354.941406 432.730469 343.386719 442.824219 C 331.832031 452.917969 323.292969 462.742188 333.414062 474.273438 L 363.453125 508.640625 L 387.972656 536.695312 C 394.578125 544.242188 406.105469 544.863281 413.480469 538.082031 L 440.871094 512.820312 L 557.207031 405.585938 C 568.492188 395.195312 561.042969 384.507812 550.652344 373.226562 Z M 550.652344 373.226562 " fill-opacity="1" fill-rule="nonzero"/></svg>