<svg xmlns="http://www.w3.org/2000/svg" xmlns:xlink="http://www.w3.org/1999/xlink" width="1200" zoomAndPan="magnify" viewBox="0 0 900 899.99999" height="1200" preserveAspectRatio="xMidYMid meet" version="1.0"><defs><clipPath id="1253f3d20a"><path d="M 270 270 L 630 270 L 630 630 L 270 630 Z M 270 270 " clip-rule="nonzero"/></clipPath></defs><g clip-path="url(#1253f3d20a)"><path fill="#ff3838" d="M 449.925781 630 C 350.683594 630 269.925781 549.265625 269.925781 450 C 269.925781 350.734375 350.660156 270.023438 449.925781 270.023438 C 549.191406 270.023438 629.925781 350.757812 629.925781 450.023438 C 629.925781 549.289062 549.167969 630 449.925781 630 Z M 449.925781 630 " fill-opacity="1" fill-rule="nonzero"/></g><path fill="#cf2323" d="M 629.875 453.710938 L 539.394531 364.144531 L 362.957031 546.941406 L 444.804688 629.925781 C 446.511719 629.976562 448.21875 630 449.925781 630 C 547.929688 630 627.898438 551.269531 629.875 453.710938 Z M 629.875 453.710938 " fill-opacity="1" fill-rule="nonzero"/><path fill="#ffffff" d="M 543.601562 367.433594 C 533.503906 356.472656 524.324219 349.078125 513.363281 359.171875 L 349.546875 510.199219 C 338.585938 520.292969 345.414062 529.941406 355.535156 540.902344 C 365.628906 551.863281 375.203125 560.003906 386.164062 549.882812 L 549.984375 398.859375 C 560.917969 388.761719 553.695312 378.394531 543.601562 367.433594 Z M 543.601562 367.433594 " fill-opacity="1" fill-rule="nonzero"/><path fill="#ffffff" d="M 355.78125 367.433594 C 365.875 356.472656 375.054688 349.078125 386.015625 359.171875 L 549.835938 510.199219 C 560.796875 520.292969 553.96875 529.941406 543.847656 540.902344 C 533.753906 551.863281 524.175781 560.003906 513.214844 549.882812 L 349.421875 398.882812 C 338.460938 388.761719 345.6875 378.394531 355.78125 367.433594 Z M 355.78125 367.433594 " fill-opacity="1" fill-rule="nonzero"/></svg>