<?xml version="1.0" standalone="no"?>
<!DOCTYPE svg PUBLIC "-//W3C//DTD SVG 20010904//EN"
 "http://www.w3.org/TR/2001/REC-SVG-20010904/DTD/svg10.dtd">
<svg version="1.0" xmlns="http://www.w3.org/2000/svg"
 width="700.000000pt" height="700.000000pt" viewBox="0 0 700.000000 700.000000"
 preserveAspectRatio="xMidYMid meet">
<metadata>
Created by potrace 1.14, written by Peter Selinger 2001-2017
</metadata>
<g transform="translate(0.000000,700.000000) scale(0.100000,-0.100000)"
fill="#000000" stroke="none">
<path d="M5425 5267 c-128 -22 -303 -77 -428 -136 -75 -36 -248 -143 -283
-176 -7 -5 -43 -37 -80 -70 -175 -152 -326 -366 -418 -592 -33 -80 -81 -253
-91 -323 -4 -30 -9 -64 -12 -75 -2 -11 -6 -81 -7 -156 -6 -267 46 -502 164
-739 254 -511 751 -841 1322 -876 l96 -6 0 1586 0 1587 -76 -3 c-42 -2 -126
-11 -187 -21z"/>
<path d="M2670 5028 c-8 -13 -19 -32 -25 -43 -18 -33 -584 -1013 -635 -1100
-26 -44 -102 -177 -170 -295 -68 -118 -130 -226 -139 -240 -8 -14 -23 -38 -32
-55 -15 -27 -286 -497 -514 -890 -51 -88 -97 -169 -103 -180 l-11 -21 1645 0
c904 0 1644 2 1644 4 0 2 -59 106 -132 230 -72 125 -139 242 -150 260 -37 66
-58 102 -182 317 -70 121 -152 261 -182 312 -30 50 -54 96 -54 102 0 6 -4 11
-10 11 -5 0 -10 4 -10 9 0 6 -29 60 -65 121 -36 61 -76 130 -89 153 -35 62
-169 294 -187 325 -9 15 -118 205 -244 422 -253 439 -335 580 -338 580 -1 0
-9 -10 -17 -22z"/>
</g>
</svg>
