<svg xmlns="http://www.w3.org/2000/svg" xmlns:xlink="http://www.w3.org/1999/xlink" width="700" zoomAndPan="magnify" viewBox="0 0 525 749.999995" height="1000" preserveAspectRatio="xMidYMid meet" version="1.0"><defs><g/><clipPath id="9d47f27039"><path d="M 24.75 0 L 500.25 0 C 513.917969 0 525 11.082031 525 24.75 L 525 725.25 C 525 738.917969 513.917969 750 500.25 750 L 24.75 750 C 11.082031 750 0 738.917969 0 725.25 L 0 24.75 C 0 11.082031 11.082031 0 24.75 0 Z M 24.75 0 " clip-rule="nonzero"/></clipPath><clipPath id="1da478db07"><path d="M 158.882812 262.371094 L 365.882812 262.371094 L 365.882812 487.371094 L 158.882812 487.371094 Z M 158.882812 262.371094 " clip-rule="nonzero"/></clipPath></defs><g clip-path="url(#9d47f27039)"><rect x="-52.5" width="630" fill="#eeeeee" y="-74.999999" height="899.999994" fill-opacity="1"/></g><g clip-path="url(#1da478db07)"><path fill="#2b2b2b" d="M 366.105469 402.9375 C 366.105469 433.253906 341.441406 457.921875 311.121094 457.921875 C 295.488281 457.921875 281.359375 451.363281 271.339844 440.855469 C 272.933594 454.558594 276.707031 472.714844 285.640625 481.648438 L 291.535156 487.539062 L 233.460938 487.539062 L 239.355469 481.648438 C 248.304688 472.699219 252.070312 454.550781 253.660156 440.851562 C 243.644531 451.359375 229.507812 457.921875 213.875 457.921875 C 183.558594 457.921875 158.890625 433.253906 158.890625 402.9375 C 158.890625 372.621094 183.558594 347.953125 213.875 347.953125 C 214.152344 347.953125 214.433594 347.953125 214.710938 347.964844 C 209.421875 339.40625 206.363281 329.324219 206.363281 318.546875 C 206.363281 287.597656 231.546875 262.414062 262.5 262.414062 C 293.449219 262.414062 318.632812 287.597656 318.632812 318.546875 C 318.632812 329.324219 315.578125 339.40625 310.285156 347.964844 C 310.5625 347.953125 310.84375 347.953125 311.121094 347.953125 C 341.441406 347.953125 366.105469 372.621094 366.105469 402.9375 " fill-opacity="1" fill-rule="nonzero"/></g><g fill="#2b2b2b" fill-opacity="1"><g transform="translate(27.459434, 100.250171)"><g><path d="M 28.203125 -52.796875 L 28.203125 -9.703125 C 28.203125 -6.765625 28.75 -4.757812 29.84375 -3.6875 C 30.945312 -2.625 32.800781 -2.09375 35.40625 -2.09375 L 35.40625 0 C 34.070312 -0.0625 32.117188 -0.144531 29.546875 -0.25 C 26.984375 -0.351562 24.332031 -0.40625 21.59375 -0.40625 C 18.195312 -0.40625 14.914062 -0.351562 11.75 -0.25 C 8.582031 -0.144531 6.132812 -0.0625 4.40625 0 L 4.40625 -2.09375 C 7.40625 -2.09375 9.71875 -2.644531 11.34375 -3.75 C 12.976562 -4.851562 13.796875 -7.035156 13.796875 -10.296875 L 13.796875 -34.703125 C 13.796875 -37.898438 13.53125 -40.265625 13 -41.796875 C 12.46875 -43.328125 11.46875 -44.328125 10 -44.796875 C 8.53125 -45.265625 6.53125 -45.5 4 -45.5 L 4 -47.703125 C 9.726562 -47.835938 14.476562 -48.269531 18.25 -49 C 22.019531 -49.726562 25.335938 -50.992188 28.203125 -52.796875 Z M 28.203125 -52.796875 "/></g></g></g><g fill="#2b2b2b" fill-opacity="1"><g transform="translate(65.757955, 100.250171)"><g><path d="M 32.796875 -53.09375 C 38.128906 -53.09375 42.828125 -52.007812 46.890625 -49.84375 C 50.960938 -47.675781 54.164062 -44.609375 56.5 -40.640625 C 58.832031 -36.679688 60 -32.035156 60 -26.703125 C 60 -21.367188 58.816406 -16.582031 56.453125 -12.34375 C 54.085938 -8.113281 50.785156 -4.765625 46.546875 -2.296875 C 42.316406 0.171875 37.367188 1.40625 31.703125 1.40625 C 26.503906 1.40625 21.851562 0.304688 17.75 -1.890625 C 13.644531 -4.097656 10.410156 -7.179688 8.046875 -11.140625 C 5.679688 -15.109375 4.5 -19.757812 4.5 -25.09375 C 4.5 -30.363281 5.664062 -35.113281 8 -39.34375 C 10.332031 -43.582031 13.628906 -46.929688 17.890625 -49.390625 C 22.160156 -51.859375 27.128906 -53.09375 32.796875 -53.09375 Z M 31.90625 -51.296875 C 28.300781 -51.296875 25.347656 -49.007812 23.046875 -44.4375 C 20.742188 -39.875 19.59375 -33.53125 19.59375 -25.40625 C 19.59375 -19.40625 20.191406 -14.570312 21.390625 -10.90625 C 22.597656 -7.238281 24.179688 -4.570312 26.140625 -2.90625 C 28.109375 -1.238281 30.257812 -0.40625 32.59375 -0.40625 C 36.195312 -0.40625 39.148438 -2.703125 41.453125 -7.296875 C 43.753906 -11.898438 44.90625 -18.269531 44.90625 -26.40625 C 44.90625 -32.40625 44.300781 -37.238281 43.09375 -40.90625 C 41.894531 -44.570312 40.3125 -47.21875 38.34375 -48.84375 C 36.382812 -50.476562 34.238281 -51.296875 31.90625 -51.296875 Z M 31.90625 -51.296875 "/></g></g></g></svg>