<svg xmlns="http://www.w3.org/2000/svg" xmlns:xlink="http://www.w3.org/1999/xlink" width="700" zoomAndPan="magnify" viewBox="0 0 525 749.999995" height="1000" preserveAspectRatio="xMidYMid meet" version="1.0"><defs><g/><clipPath id="55045721a8"><path d="M 24.75 0 L 500.25 0 C 513.917969 0 525 11.082031 525 24.75 L 525 725.25 C 525 738.917969 513.917969 750 500.25 750 L 24.75 750 C 11.082031 750 0 738.917969 0 725.25 L 0 24.75 C 0 11.082031 11.082031 0 24.75 0 Z M 24.75 0 " clip-rule="nonzero"/></clipPath><clipPath id="9a1e6bfb87"><path d="M 158.882812 262.371094 L 365.882812 262.371094 L 365.882812 487.371094 L 158.882812 487.371094 Z M 158.882812 262.371094 " clip-rule="nonzero"/></clipPath></defs><g clip-path="url(#55045721a8)"><rect x="-52.5" width="630" fill="#eeeeee" y="-74.999999" height="899.999994" fill-opacity="1"/></g><g clip-path="url(#9a1e6bfb87)"><path fill="#2b2b2b" d="M 366.105469 402.9375 C 366.105469 433.253906 341.441406 457.921875 311.121094 457.921875 C 295.488281 457.921875 281.359375 451.363281 271.339844 440.855469 C 272.933594 454.558594 276.707031 472.714844 285.640625 481.648438 L 291.535156 487.539062 L 233.460938 487.539062 L 239.355469 481.648438 C 248.304688 472.699219 252.070312 454.550781 253.660156 440.851562 C 243.644531 451.359375 229.507812 457.921875 213.875 457.921875 C 183.558594 457.921875 158.890625 433.253906 158.890625 402.9375 C 158.890625 372.621094 183.558594 347.953125 213.875 347.953125 C 214.152344 347.953125 214.433594 347.953125 214.710938 347.964844 C 209.421875 339.40625 206.363281 329.324219 206.363281 318.546875 C 206.363281 287.597656 231.546875 262.414062 262.5 262.414062 C 293.449219 262.414062 318.632812 287.597656 318.632812 318.546875 C 318.632812 329.324219 315.578125 339.40625 310.285156 347.964844 C 310.5625 347.953125 310.84375 347.953125 311.121094 347.953125 C 341.441406 347.953125 366.105469 372.621094 366.105469 402.9375 " fill-opacity="1" fill-rule="nonzero"/></g><g fill="#2b2b2b" fill-opacity="1"><g transform="translate(51.341817, 111.200991)"><g><path d="M -2.296875 18.796875 L -2.296875 16.796875 C 0.367188 16.535156 2.632812 15.753906 4.5 14.453125 C 6.363281 13.148438 7.796875 10.929688 8.796875 7.796875 C 9.796875 4.660156 10.296875 0.257812 10.296875 -5.40625 L 10.296875 -60.203125 C 10.296875 -62.671875 10.113281 -64.488281 9.75 -65.65625 C 9.382812 -66.820312 8.664062 -67.617188 7.59375 -68.046875 C 6.53125 -68.484375 4.929688 -68.734375 2.796875 -68.796875 L 2.796875 -70.796875 C 4.460938 -70.734375 6.644531 -70.664062 9.34375 -70.59375 C 12.050781 -70.53125 14.90625 -70.5 17.90625 -70.5 C 20.90625 -70.5 23.820312 -70.53125 26.65625 -70.59375 C 29.488281 -70.664062 31.835938 -70.734375 33.703125 -70.796875 L 33.703125 -68.796875 C 31.628906 -68.734375 30.039062 -68.484375 28.9375 -68.046875 C 27.84375 -67.617188 27.113281 -66.820312 26.75 -65.65625 C 26.382812 -64.488281 26.203125 -62.671875 26.203125 -60.203125 L 26.203125 -23.59375 C 26.203125 -20.863281 26.203125 -17.914062 26.203125 -14.75 C 26.203125 -11.582031 26.082031 -8.5 25.84375 -5.5 C 25.613281 -2.5 25.164062 0.164062 24.5 2.5 C 23.164062 7.101562 20.28125 10.96875 15.84375 14.09375 C 11.414062 17.226562 5.367188 18.796875 -2.296875 18.796875 Z M -2.296875 18.796875 "/></g></g></g></svg>