<svg xmlns="http://www.w3.org/2000/svg" xmlns:xlink="http://www.w3.org/1999/xlink" width="700" zoomAndPan="magnify" viewBox="0 0 525 749.999995" height="1000" preserveAspectRatio="xMidYMid meet" version="1.0"><defs><g/><clipPath id="55317b32f5"><path d="M 24.75 0 L 500.25 0 C 513.917969 0 525 11.082031 525 24.75 L 525 725.25 C 525 738.917969 513.917969 750 500.25 750 L 24.75 750 C 11.082031 750 0 738.917969 0 725.25 L 0 24.75 C 0 11.082031 11.082031 0 24.75 0 Z M 24.75 0 " clip-rule="nonzero"/></clipPath><clipPath id="78009bbd91"><path d="M 158.882812 262.371094 L 365.882812 262.371094 L 365.882812 487.371094 L 158.882812 487.371094 Z M 158.882812 262.371094 " clip-rule="nonzero"/></clipPath></defs><g clip-path="url(#55317b32f5)"><rect x="-52.5" width="630" fill="#eeeeee" y="-74.999999" height="899.999994" fill-opacity="1"/></g><g clip-path="url(#78009bbd91)"><path fill="#2b2b2b" d="M 366.105469 402.9375 C 366.105469 433.253906 341.441406 457.921875 311.121094 457.921875 C 295.488281 457.921875 281.359375 451.363281 271.339844 440.855469 C 272.933594 454.558594 276.707031 472.714844 285.640625 481.648438 L 291.535156 487.539062 L 233.460938 487.539062 L 239.355469 481.648438 C 248.304688 472.699219 252.070312 454.550781 253.660156 440.851562 C 243.644531 451.359375 229.507812 457.921875 213.875 457.921875 C 183.558594 457.921875 158.890625 433.253906 158.890625 402.9375 C 158.890625 372.621094 183.558594 347.953125 213.875 347.953125 C 214.152344 347.953125 214.433594 347.953125 214.710938 347.964844 C 209.421875 339.40625 206.363281 329.324219 206.363281 318.546875 C 206.363281 287.597656 231.546875 262.414062 262.5 262.414062 C 293.449219 262.414062 318.632812 287.597656 318.632812 318.546875 C 318.632812 329.324219 315.578125 339.40625 310.285156 347.964844 C 310.5625 347.953125 310.84375 347.953125 311.121094 347.953125 C 341.441406 347.953125 366.105469 372.621094 366.105469 402.9375 " fill-opacity="1" fill-rule="nonzero"/></g><g fill="#2b2b2b" fill-opacity="1"><g transform="translate(43.144553, 111.200874)"><g><path d="M 38.09375 -53.09375 L 38.5 -50.5 L 7.296875 -10.5 L 8.703125 -13.90625 L 40.5 -13.90625 C 43.226562 -13.90625 44.957031 -14.238281 45.6875 -14.90625 C 46.425781 -15.570312 46.929688 -16.738281 47.203125 -18.40625 L 49.296875 -18.40625 C 49.296875 -14.40625 49.328125 -11.285156 49.390625 -9.046875 C 49.460938 -6.816406 49.566406 -4.832031 49.703125 -3.09375 C 49.234375 -3.226562 48.363281 -3.3125 47.09375 -3.34375 C 45.832031 -3.382812 44.332031 -3.4375 42.59375 -3.5 C 40.863281 -3.5625 39.113281 -3.59375 37.34375 -3.59375 C 35.582031 -3.59375 33.9375 -3.59375 32.40625 -3.59375 L 0.796875 -3.59375 L 0.796875 -5.703125 Z M 39.703125 -53.09375 L 39.703125 14.09375 L 28.09375 14.09375 L 28.09375 -39 L 38.09375 -53.09375 Z M 39.703125 -53.09375 "/></g></g></g></svg>