<svg xmlns="http://www.w3.org/2000/svg" xmlns:xlink="http://www.w3.org/1999/xlink" width="700" zoomAndPan="magnify" viewBox="0 0 525 749.999995" height="1000" preserveAspectRatio="xMidYMid meet" version="1.0"><defs><g/><clipPath id="c791ff6ef4"><path d="M 24.75 0 L 500.25 0 C 513.917969 0 525 11.082031 525 24.75 L 525 725.25 C 525 738.917969 513.917969 750 500.25 750 L 24.75 750 C 11.082031 750 0 738.917969 0 725.25 L 0 24.75 C 0 11.082031 11.082031 0 24.75 0 Z M 24.75 0 " clip-rule="nonzero"/></clipPath><clipPath id="09aa425323"><path d="M 158.882812 262.371094 L 365.882812 262.371094 L 365.882812 487.371094 L 158.882812 487.371094 Z M 158.882812 262.371094 " clip-rule="nonzero"/></clipPath></defs><g clip-path="url(#c791ff6ef4)"><rect x="-52.5" width="630" fill="#eeeeee" y="-74.999999" height="899.999994" fill-opacity="1"/></g><g clip-path="url(#09aa425323)"><path fill="#2b2b2b" d="M 366.105469 402.9375 C 366.105469 433.253906 341.441406 457.921875 311.121094 457.921875 C 295.488281 457.921875 281.359375 451.363281 271.339844 440.855469 C 272.933594 454.558594 276.707031 472.714844 285.640625 481.648438 L 291.535156 487.539062 L 233.460938 487.539062 L 239.355469 481.648438 C 248.304688 472.699219 252.070312 454.550781 253.660156 440.851562 C 243.644531 451.359375 229.507812 457.921875 213.875 457.921875 C 183.558594 457.921875 158.890625 433.253906 158.890625 402.9375 C 158.890625 372.621094 183.558594 347.953125 213.875 347.953125 C 214.152344 347.953125 214.433594 347.953125 214.710938 347.964844 C 209.421875 339.40625 206.363281 329.324219 206.363281 318.546875 C 206.363281 287.597656 231.546875 262.414062 262.5 262.414062 C 293.449219 262.414062 318.632812 287.597656 318.632812 318.546875 C 318.632812 329.324219 315.578125 339.40625 310.285156 347.964844 C 310.5625 347.953125 310.84375 347.953125 311.121094 347.953125 C 341.441406 347.953125 366.105469 372.621094 366.105469 402.9375 " fill-opacity="1" fill-rule="nonzero"/></g><g fill="#2b2b2b" fill-opacity="1"><g transform="translate(41.896505, 111.200874)"><g><path d="M 27.796875 -53.09375 C 35.066406 -53.09375 40.800781 -50.691406 45 -45.890625 C 49.195312 -41.097656 51.296875 -34.300781 51.296875 -25.5 C 51.296875 -20.164062 50.445312 -15.378906 48.75 -11.140625 C 47.050781 -6.910156 44.785156 -3.242188 41.953125 -0.140625 C 39.117188 2.953125 35.984375 5.546875 32.546875 7.640625 C 29.117188 9.742188 25.617188 11.410156 22.046875 12.640625 C 18.484375 13.878906 15.132812 14.734375 12 15.203125 L 11.59375 13.203125 C 14.53125 12.335938 17.445312 11.171875 20.34375 9.703125 C 23.25 8.234375 25.882812 6.113281 28.25 3.34375 C 30.613281 0.582031 32.53125 -3.160156 34 -7.890625 C 35.46875 -12.628906 36.203125 -18.664062 36.203125 -26 C 36.203125 -32.46875 35.71875 -37.515625 34.75 -41.140625 C 33.78125 -44.773438 32.578125 -47.34375 31.140625 -48.84375 C 29.710938 -50.34375 28.234375 -51.09375 26.703125 -51.09375 C 25.234375 -51.09375 23.832031 -50.410156 22.5 -49.046875 C 21.164062 -47.679688 20.082031 -45.460938 19.25 -42.390625 C 18.414062 -39.328125 18 -35.265625 18 -30.203125 C 18 -25.460938 18.378906 -21.644531 19.140625 -18.75 C 19.910156 -15.851562 20.945312 -13.769531 22.25 -12.5 C 23.550781 -11.226562 24.96875 -10.59375 26.5 -10.59375 C 27.632812 -10.59375 28.898438 -10.925781 30.296875 -11.59375 C 31.703125 -12.257812 33.003906 -13.359375 34.203125 -14.890625 C 35.398438 -16.429688 36.265625 -18.46875 36.796875 -21 L 37.703125 -20.59375 C 37.296875 -17.394531 36.3125 -14.863281 34.75 -13 C 33.1875 -11.132812 31.300781 -9.785156 29.09375 -8.953125 C 26.894531 -8.117188 24.695312 -7.703125 22.5 -7.703125 C 18.96875 -7.703125 15.71875 -8.566406 12.75 -10.296875 C 9.78125 -12.035156 7.394531 -14.519531 5.59375 -17.75 C 3.800781 -20.976562 2.90625 -24.863281 2.90625 -29.40625 C 2.90625 -34.53125 4.050781 -38.859375 6.34375 -42.390625 C 8.644531 -45.929688 11.675781 -48.597656 15.4375 -50.390625 C 19.207031 -52.191406 23.328125 -53.09375 27.796875 -53.09375 Z M 27.796875 -53.09375 "/></g></g></g></svg>