<svg xmlns="http://www.w3.org/2000/svg" xmlns:xlink="http://www.w3.org/1999/xlink" width="700" zoomAndPan="magnify" viewBox="0 0 525 749.999995" height="1000" preserveAspectRatio="xMidYMid meet" version="1.0"><defs><g/><clipPath id="63bde96015"><path d="M 24.75 0 L 500.25 0 C 513.917969 0 525 11.082031 525 24.75 L 525 725.25 C 525 738.917969 513.917969 750 500.25 750 L 24.75 750 C 11.082031 750 0 738.917969 0 725.25 L 0 24.75 C 0 11.082031 11.082031 0 24.75 0 Z M 24.75 0 " clip-rule="nonzero"/></clipPath><clipPath id="36bc1ee6c8"><path d="M 158.882812 262.371094 L 365.882812 262.371094 L 365.882812 487.371094 L 158.882812 487.371094 Z M 158.882812 262.371094 " clip-rule="nonzero"/></clipPath></defs><g clip-path="url(#63bde96015)"><rect x="-52.5" width="630" fill="#eeeeee" y="-74.999999" height="899.999994" fill-opacity="1"/></g><g clip-path="url(#36bc1ee6c8)"><path fill="#2b2b2b" d="M 366.105469 402.9375 C 366.105469 433.253906 341.441406 457.921875 311.121094 457.921875 C 295.488281 457.921875 281.359375 451.363281 271.339844 440.855469 C 272.933594 454.558594 276.707031 472.714844 285.640625 481.648438 L 291.535156 487.539062 L 233.460938 487.539062 L 239.355469 481.648438 C 248.304688 472.699219 252.070312 454.550781 253.660156 440.851562 C 243.644531 451.359375 229.507812 457.921875 213.875 457.921875 C 183.558594 457.921875 158.890625 433.253906 158.890625 402.9375 C 158.890625 372.621094 183.558594 347.953125 213.875 347.953125 C 214.152344 347.953125 214.433594 347.953125 214.710938 347.964844 C 209.421875 339.40625 206.363281 329.324219 206.363281 318.546875 C 206.363281 287.597656 231.546875 262.414062 262.5 262.414062 C 293.449219 262.414062 318.632812 287.597656 318.632812 318.546875 C 318.632812 329.324219 315.578125 339.40625 310.285156 347.964844 C 310.5625 347.953125 310.84375 347.953125 311.121094 347.953125 C 341.441406 347.953125 366.105469 372.621094 366.105469 402.9375 " fill-opacity="1" fill-rule="nonzero"/></g><g fill="#2b2b2b" fill-opacity="1"><g transform="translate(46.794943, 111.200933)"><g><path d="M 2.296875 -52.09375 C 2.898438 -51.96875 4 -51.867188 5.59375 -51.796875 C 7.195312 -51.734375 9.03125 -51.679688 11.09375 -51.640625 C 13.164062 -51.609375 15.203125 -51.59375 17.203125 -51.59375 L 45.40625 -51.59375 L 45.40625 -49.5 C 44.132812 -46.5 42.515625 -43.28125 40.546875 -39.84375 C 38.578125 -36.414062 36.609375 -32.679688 34.640625 -28.640625 C 32.679688 -24.609375 31.050781 -20.273438 29.75 -15.640625 C 28.445312 -11.015625 27.796875 -6 27.796875 -0.59375 C 27.796875 -0.195312 27.84375 0.53125 27.9375 1.59375 C 28.039062 2.664062 28.125 3.75 28.1875 4.84375 C 28.257812 5.945312 28.296875 6.832031 28.296875 7.5 C 28.296875 9.363281 27.695312 11.046875 26.5 12.546875 C 25.300781 14.046875 23.46875 14.796875 21 14.796875 C 18.53125 14.796875 16.695312 13.960938 15.5 12.296875 C 14.300781 10.628906 13.703125 8.53125 13.703125 6 C 13.703125 2.332031 14.367188 -1.296875 15.703125 -4.890625 C 17.035156 -8.492188 18.765625 -12.046875 20.890625 -15.546875 C 23.023438 -19.046875 25.328125 -22.460938 27.796875 -25.796875 C 30.265625 -29.128906 32.679688 -32.328125 35.046875 -35.390625 C 37.410156 -38.460938 39.460938 -41.363281 41.203125 -44.09375 L 38.90625 -39.5 L 11.5 -39.5 C 8.769531 -39.5 7.035156 -39.164062 6.296875 -38.5 C 5.566406 -37.832031 5.066406 -36.664062 4.796875 -35 L 2.703125 -35 C 2.703125 -39.394531 2.664062 -42.875 2.59375 -45.4375 C 2.53125 -48.007812 2.429688 -50.226562 2.296875 -52.09375 Z M 2.296875 -52.09375 "/></g></g></g></svg>