<svg xmlns="http://www.w3.org/2000/svg" xmlns:xlink="http://www.w3.org/1999/xlink" width="700" zoomAndPan="magnify" viewBox="0 0 525 749.999995" height="1000" preserveAspectRatio="xMidYMid meet" version="1.0"><defs><g/><clipPath id="416e786227"><path d="M 24.75 0 L 500.25 0 C 513.917969 0 525 11.082031 525 24.75 L 525 725.25 C 525 738.917969 513.917969 750 500.25 750 L 24.75 750 C 11.082031 750 0 738.917969 0 725.25 L 0 24.75 C 0 11.082031 11.082031 0 24.75 0 Z M 24.75 0 " clip-rule="nonzero"/></clipPath><clipPath id="44284795d0"><path d="M 158.882812 262.371094 L 365.882812 262.371094 L 365.882812 487.371094 L 158.882812 487.371094 Z M 158.882812 262.371094 " clip-rule="nonzero"/></clipPath></defs><g clip-path="url(#416e786227)"><rect x="-52.5" width="630" fill="#eeeeee" y="-74.999999" height="899.999994" fill-opacity="1"/></g><g clip-path="url(#44284795d0)"><path fill="#2b2b2b" d="M 366.105469 402.9375 C 366.105469 433.253906 341.441406 457.921875 311.121094 457.921875 C 295.488281 457.921875 281.359375 451.363281 271.339844 440.855469 C 272.933594 454.558594 276.707031 472.714844 285.640625 481.648438 L 291.535156 487.539062 L 233.460938 487.539062 L 239.355469 481.648438 C 248.304688 472.699219 252.070312 454.550781 253.660156 440.851562 C 243.644531 451.359375 229.507812 457.921875 213.875 457.921875 C 183.558594 457.921875 158.890625 433.253906 158.890625 402.9375 C 158.890625 372.621094 183.558594 347.953125 213.875 347.953125 C 214.152344 347.953125 214.433594 347.953125 214.710938 347.964844 C 209.421875 339.40625 206.363281 329.324219 206.363281 318.546875 C 206.363281 287.597656 231.546875 262.414062 262.5 262.414062 C 293.449219 262.414062 318.632812 287.597656 318.632812 318.546875 C 318.632812 329.324219 315.578125 339.40625 310.285156 347.964844 C 310.5625 347.953125 310.84375 347.953125 311.121094 347.953125 C 341.441406 347.953125 366.105469 372.621094 366.105469 402.9375 " fill-opacity="1" fill-rule="nonzero"/></g><g fill="#2b2b2b" fill-opacity="1"><g transform="translate(43.396505, 111.200933)"><g><path d="M 27.5 -53.09375 C 32.632812 -53.09375 36.703125 -51.992188 39.703125 -49.796875 C 42.703125 -47.597656 44.203125 -44.46875 44.203125 -40.40625 C 44.203125 -37.800781 43.550781 -35.429688 42.25 -33.296875 C 40.945312 -31.160156 39.226562 -29.144531 37.09375 -27.25 C 34.96875 -25.351562 32.6875 -23.570312 30.25 -21.90625 C 27.8125 -20.238281 25.457031 -18.585938 23.1875 -16.953125 C 20.925781 -15.316406 19 -13.632812 17.40625 -11.90625 L 39 -11.90625 C 41.726562 -11.90625 43.457031 -12.238281 44.1875 -12.90625 C 44.925781 -13.570312 45.429688 -14.738281 45.703125 -16.40625 L 47.796875 -16.40625 C 47.796875 -11.9375 47.828125 -8.46875 47.890625 -6 C 47.960938 -3.53125 48.066406 -1.363281 48.203125 0.5 C 47.597656 0.363281 46.492188 0.257812 44.890625 0.1875 C 43.296875 0.125 41.460938 0.078125 39.390625 0.046875 C 37.328125 0.015625 35.296875 0 33.296875 0 L 4.203125 0 L 4.203125 -1.90625 C 6.066406 -3.90625 8.363281 -6.101562 11.09375 -8.5 C 13.832031 -10.894531 16.515625 -13.5625 19.140625 -16.5 C 21.773438 -19.4375 23.992188 -22.617188 25.796875 -26.046875 C 27.597656 -29.484375 28.5 -33.164062 28.5 -37.09375 C 28.5 -40.695312 27.695312 -43.296875 26.09375 -44.890625 C 24.5 -46.492188 22.203125 -47.296875 19.203125 -47.296875 C 16.335938 -47.296875 13.820312 -46.644531 11.65625 -45.34375 C 9.488281 -44.050781 7.535156 -42.132812 5.796875 -39.59375 L 4.09375 -40.59375 C 5.425781 -42.863281 7.109375 -44.945312 9.140625 -46.84375 C 11.179688 -48.75 13.703125 -50.265625 16.703125 -51.390625 C 19.703125 -52.523438 23.300781 -53.09375 27.5 -53.09375 Z M 27.5 -53.09375 "/></g></g></g></svg>