<svg xmlns="http://www.w3.org/2000/svg" xmlns:xlink="http://www.w3.org/1999/xlink" width="700" zoomAndPan="magnify" viewBox="0 0 525 749.999995" height="1000" preserveAspectRatio="xMidYMid meet" version="1.0"><defs><g/><clipPath id="301a8638ec"><path d="M 24.75 0 L 500.25 0 C 513.917969 0 525 11.082031 525 24.75 L 525 725.25 C 525 738.917969 513.917969 750 500.25 750 L 24.75 750 C 11.082031 750 0 738.917969 0 725.25 L 0 24.75 C 0 11.082031 11.082031 0 24.75 0 Z M 24.75 0 " clip-rule="nonzero"/></clipPath></defs><g clip-path="url(#301a8638ec)"><rect x="-52.5" width="630" fill="#eeeeee" y="-74.999999" height="899.999994" fill-opacity="1"/></g><path fill="#dd2e44" d="M 264.96875 485.257812 C 263.460938 487.351562 261.035156 487.351562 259.527344 485.257812 L 183.300781 378.753906 C 181.796875 376.65625 181.796875 373.25 183.300781 371.148438 L 259.527344 264.644531 C 261.035156 262.542969 263.460938 262.542969 264.96875 264.644531 L 341.199219 371.148438 C 342.699219 373.25 342.699219 376.65625 341.199219 378.753906 Z M 264.96875 485.257812 " fill-opacity="1" fill-rule="nonzero"/><g fill="#dd2e44" fill-opacity="1"><g transform="translate(43.396505, 111.200925)"><g><path d="M 27.5 -53.09375 C 32.632812 -53.09375 36.703125 -51.992188 39.703125 -49.796875 C 42.703125 -47.597656 44.203125 -44.46875 44.203125 -40.40625 C 44.203125 -37.800781 43.550781 -35.429688 42.25 -33.296875 C 40.945312 -31.160156 39.226562 -29.144531 37.09375 -27.25 C 34.96875 -25.351562 32.6875 -23.570312 30.25 -21.90625 C 27.8125 -20.238281 25.457031 -18.585938 23.1875 -16.953125 C 20.925781 -15.316406 19 -13.632812 17.40625 -11.90625 L 39 -11.90625 C 41.726562 -11.90625 43.457031 -12.238281 44.1875 -12.90625 C 44.925781 -13.570312 45.429688 -14.738281 45.703125 -16.40625 L 47.796875 -16.40625 C 47.796875 -11.9375 47.828125 -8.46875 47.890625 -6 C 47.960938 -3.53125 48.066406 -1.363281 48.203125 0.5 C 47.597656 0.363281 46.492188 0.257812 44.890625 0.1875 C 43.296875 0.125 41.460938 0.078125 39.390625 0.046875 C 37.328125 0.015625 35.296875 0 33.296875 0 L 4.203125 0 L 4.203125 -1.90625 C 6.066406 -3.90625 8.363281 -6.101562 11.09375 -8.5 C 13.832031 -10.894531 16.515625 -13.5625 19.140625 -16.5 C 21.773438 -19.4375 23.992188 -22.617188 25.796875 -26.046875 C 27.597656 -29.484375 28.5 -33.164062 28.5 -37.09375 C 28.5 -40.695312 27.695312 -43.296875 26.09375 -44.890625 C 24.5 -46.492188 22.203125 -47.296875 19.203125 -47.296875 C 16.335938 -47.296875 13.820312 -46.644531 11.65625 -45.34375 C 9.488281 -44.050781 7.535156 -42.132812 5.796875 -39.59375 L 4.09375 -40.59375 C 5.425781 -42.863281 7.109375 -44.945312 9.140625 -46.84375 C 11.179688 -48.75 13.703125 -50.265625 16.703125 -51.390625 C 19.703125 -52.523438 23.300781 -53.09375 27.5 -53.09375 Z M 27.5 -53.09375 "/></g></g></g></svg>