<svg xmlns="http://www.w3.org/2000/svg" xmlns:xlink="http://www.w3.org/1999/xlink" width="700" zoomAndPan="magnify" viewBox="0 0 525 749.999995" height="1000" preserveAspectRatio="xMidYMid meet" version="1.0"><defs><g/><clipPath id="8c70b8d591"><path d="M 24.75 0 L 500.25 0 C 513.917969 0 525 11.082031 525 24.75 L 525 725.25 C 525 738.917969 513.917969 750 500.25 750 L 24.75 750 C 11.082031 750 0 738.917969 0 725.25 L 0 24.75 C 0 11.082031 11.082031 0 24.75 0 Z M 24.75 0 " clip-rule="nonzero"/></clipPath></defs><g clip-path="url(#8c70b8d591)"><rect x="-52.5" width="630" fill="#eeeeee" y="-74.999999" height="899.999994" fill-opacity="1"/></g><path fill="#dd2e44" d="M 264.96875 485.257812 C 263.460938 487.351562 261.035156 487.351562 259.527344 485.257812 L 183.300781 378.753906 C 181.796875 376.65625 181.796875 373.25 183.300781 371.148438 L 259.527344 264.644531 C 261.035156 262.546875 263.460938 262.546875 264.96875 264.644531 L 341.199219 371.148438 C 342.699219 373.25 342.699219 376.65625 341.199219 378.753906 Z M 264.96875 485.257812 " fill-opacity="1" fill-rule="nonzero"/><g fill="#dd2e44" fill-opacity="1"><g transform="translate(45.142598, 111.200874)"><g><path d="M 24.59375 -53.09375 C 27.863281 -53.09375 30.796875 -52.644531 33.390625 -51.75 C 35.992188 -50.851562 38.03125 -49.550781 39.5 -47.84375 C 40.96875 -46.144531 41.703125 -44.0625 41.703125 -41.59375 C 41.703125 -39.0625 40.882812 -36.695312 39.25 -34.5 C 37.613281 -32.300781 35.28125 -30.382812 32.25 -28.75 C 29.21875 -27.113281 25.601562 -25.894531 21.40625 -25.09375 C 25.9375 -25.300781 30 -24.835938 33.59375 -23.703125 C 37.195312 -22.566406 40.046875 -20.847656 42.140625 -18.546875 C 44.242188 -16.242188 45.296875 -13.363281 45.296875 -9.90625 C 45.296875 -6.832031 44.476562 -3.992188 42.84375 -1.390625 C 41.21875 1.203125 38.96875 3.515625 36.09375 5.546875 C 33.226562 7.578125 29.976562 9.3125 26.34375 10.75 C 22.71875 12.1875 18.90625 13.269531 14.90625 14 C 10.90625 14.726562 6.90625 15.09375 2.90625 15.09375 L 2.90625 13.09375 C 6.03125 13.03125 9.207031 12.484375 12.4375 11.453125 C 15.675781 10.421875 18.644531 8.953125 21.34375 7.046875 C 24.050781 5.148438 26.238281 2.785156 27.90625 -0.046875 C 29.570312 -2.878906 30.40625 -6.128906 30.40625 -9.796875 C 30.40625 -13.734375 29.46875 -16.96875 27.59375 -19.5 C 25.726562 -22.03125 23.164062 -23.429688 19.90625 -23.703125 C 18.90625 -23.234375 18.003906 -22.847656 17.203125 -22.546875 C 16.398438 -22.242188 15.597656 -22.09375 14.796875 -22.09375 C 14.203125 -22.09375 13.738281 -22.191406 13.40625 -22.390625 C 13.070312 -22.597656 12.90625 -22.96875 12.90625 -23.5 C 12.90625 -24.300781 13.238281 -24.867188 13.90625 -25.203125 C 14.570312 -25.535156 15.300781 -25.703125 16.09375 -25.703125 C 16.632812 -25.703125 17.1875 -25.648438 17.75 -25.546875 C 18.3125 -25.453125 18.925781 -25.367188 19.59375 -25.296875 C 22.46875 -27.296875 24.46875 -29.445312 25.59375 -31.75 C 26.726562 -34.050781 27.296875 -36.367188 27.296875 -38.703125 C 27.296875 -41.703125 26.507812 -43.914062 24.9375 -45.34375 C 23.375 -46.78125 21.195312 -47.5 18.40625 -47.5 C 15.800781 -47.5 13.363281 -46.847656 11.09375 -45.546875 C 8.832031 -44.242188 6.9375 -42.296875 5.40625 -39.703125 L 3.59375 -40.59375 C 4.800781 -42.800781 6.300781 -44.851562 8.09375 -46.75 C 9.894531 -48.644531 12.128906 -50.175781 14.796875 -51.34375 C 17.460938 -52.507812 20.726562 -53.09375 24.59375 -53.09375 Z M 24.59375 -53.09375 "/></g></g></g></svg>