<svg xmlns="http://www.w3.org/2000/svg" xmlns:xlink="http://www.w3.org/1999/xlink" width="700" zoomAndPan="magnify" viewBox="0 0 525 749.999995" height="1000" preserveAspectRatio="xMidYMid meet" version="1.0"><defs><g/><clipPath id="14169c1f5f"><path d="M 24.75 0 L 500.25 0 C 513.917969 0 525 11.082031 525 24.75 L 525 725.25 C 525 738.917969 513.917969 750 500.25 750 L 24.75 750 C 11.082031 750 0 738.917969 0 725.25 L 0 24.75 C 0 11.082031 11.082031 0 24.75 0 Z M 24.75 0 " clip-rule="nonzero"/></clipPath></defs><g clip-path="url(#14169c1f5f)"><rect x="-52.5" width="630" fill="#eeeeee" y="-74.999999" height="899.999994" fill-opacity="1"/></g><path fill="#dd2e44" d="M 264.96875 485.257812 C 263.460938 487.351562 261.035156 487.351562 259.527344 485.257812 L 183.300781 378.753906 C 181.796875 376.65625 181.796875 373.25 183.300781 371.148438 L 259.527344 264.644531 C 261.035156 262.542969 263.460938 262.542969 264.96875 264.644531 L 341.199219 371.148438 C 342.699219 373.25 342.699219 376.65625 341.199219 378.753906 Z M 264.96875 485.257812 " fill-opacity="1" fill-rule="nonzero"/><g fill="#dd2e44" fill-opacity="1"><g transform="translate(51.341817, 111.200933)"><g><path d="M -2.296875 18.796875 L -2.296875 16.796875 C 0.367188 16.535156 2.632812 15.753906 4.5 14.453125 C 6.363281 13.148438 7.796875 10.929688 8.796875 7.796875 C 9.796875 4.660156 10.296875 0.257812 10.296875 -5.40625 L 10.296875 -60.203125 C 10.296875 -62.671875 10.113281 -64.488281 9.75 -65.65625 C 9.382812 -66.820312 8.664062 -67.617188 7.59375 -68.046875 C 6.53125 -68.484375 4.929688 -68.734375 2.796875 -68.796875 L 2.796875 -70.796875 C 4.460938 -70.734375 6.644531 -70.664062 9.34375 -70.59375 C 12.050781 -70.53125 14.90625 -70.5 17.90625 -70.5 C 20.90625 -70.5 23.820312 -70.53125 26.65625 -70.59375 C 29.488281 -70.664062 31.835938 -70.734375 33.703125 -70.796875 L 33.703125 -68.796875 C 31.628906 -68.734375 30.039062 -68.484375 28.9375 -68.046875 C 27.84375 -67.617188 27.113281 -66.820312 26.75 -65.65625 C 26.382812 -64.488281 26.203125 -62.671875 26.203125 -60.203125 L 26.203125 -23.59375 C 26.203125 -20.863281 26.203125 -17.914062 26.203125 -14.75 C 26.203125 -11.582031 26.082031 -8.5 25.84375 -5.5 C 25.613281 -2.5 25.164062 0.164062 24.5 2.5 C 23.164062 7.101562 20.28125 10.96875 15.84375 14.09375 C 11.414062 17.226562 5.367188 18.796875 -2.296875 18.796875 Z M -2.296875 18.796875 "/></g></g></g></svg>