<svg xmlns="http://www.w3.org/2000/svg" xmlns:xlink="http://www.w3.org/1999/xlink" width="700" zoomAndPan="magnify" viewBox="0 0 525 749.999995" height="1000" preserveAspectRatio="xMidYMid meet" version="1.0"><defs><g/><clipPath id="cbb57b5112"><path d="M 24.75 0 L 500.25 0 C 513.917969 0 525 11.082031 525 24.75 L 525 725.25 C 525 738.917969 513.917969 750 500.25 750 L 24.75 750 C 11.082031 750 0 738.917969 0 725.25 L 0 24.75 C 0 11.082031 11.082031 0 24.75 0 Z M 24.75 0 " clip-rule="nonzero"/></clipPath></defs><g clip-path="url(#cbb57b5112)"><rect x="-52.5" width="630" fill="#eeeeee" y="-74.999999" height="899.999994" fill-opacity="1"/></g><path fill="#dd2e44" d="M 264.96875 485.257812 C 263.460938 487.351562 261.035156 487.351562 259.527344 485.257812 L 183.300781 378.753906 C 181.796875 376.65625 181.796875 373.25 183.300781 371.148438 L 259.527344 264.644531 C 261.035156 262.546875 263.460938 262.546875 264.96875 264.644531 L 341.199219 371.148438 C 342.699219 373.25 342.699219 376.65625 341.199219 378.753906 Z M 264.96875 485.257812 " fill-opacity="1" fill-rule="nonzero"/><g fill="#dd2e44" fill-opacity="1"><g transform="translate(33.845724, 111.200874)"><g><path d="M 68.90625 -70.796875 L 68.90625 -68.90625 C 66.769531 -68.4375 64.484375 -67.5 62.046875 -66.09375 C 59.617188 -64.695312 57.070312 -62.429688 54.40625 -59.296875 L 35.59375 -36.90625 L 41.40625 -45.203125 L 65.203125 -8.09375 C 66.128906 -6.5625 67.125 -5.328125 68.1875 -4.390625 C 69.257812 -3.460938 70.664062 -2.664062 72.40625 -2 L 72.40625 0 C 70.070312 -0.132812 67.46875 -0.21875 64.59375 -0.25 C 61.726562 -0.28125 59.128906 -0.296875 56.796875 -0.296875 C 55.398438 -0.296875 53.703125 -0.28125 51.703125 -0.25 C 49.703125 -0.21875 47.164062 -0.132812 44.09375 0 L 44.09375 -2 C 46.832031 -2.132812 48.484375 -2.515625 49.046875 -3.140625 C 49.617188 -3.773438 49.367188 -4.894531 48.296875 -6.5 L 33.796875 -30 C 32.867188 -31.53125 32.035156 -32.675781 31.296875 -33.4375 C 30.566406 -34.207031 29.832031 -34.742188 29.09375 -35.046875 C 28.363281 -35.347656 27.398438 -35.53125 26.203125 -35.59375 L 26.203125 -37.703125 C 29.128906 -37.765625 31.742188 -38.5625 34.046875 -40.09375 C 36.347656 -41.632812 38.863281 -43.96875 41.59375 -47.09375 L 47.5 -54.203125 C 50.03125 -57.203125 51.507812 -59.785156 51.9375 -61.953125 C 52.375 -64.117188 51.941406 -65.800781 50.640625 -67 C 49.347656 -68.195312 47.367188 -68.832031 44.703125 -68.90625 L 44.703125 -70.796875 C 46.367188 -70.734375 47.953125 -70.679688 49.453125 -70.640625 C 50.953125 -70.609375 52.515625 -70.578125 54.140625 -70.546875 C 55.773438 -70.515625 57.5625 -70.5 59.5 -70.5 C 61.4375 -70.5 63.1875 -70.53125 64.75 -70.59375 C 66.3125 -70.664062 67.695312 -70.734375 68.90625 -70.796875 Z M 34.296875 -70.796875 L 34.296875 -68.796875 C 32.160156 -68.734375 30.539062 -68.484375 29.4375 -68.046875 C 28.34375 -67.617188 27.628906 -66.820312 27.296875 -65.65625 C 26.960938 -64.488281 26.796875 -62.671875 26.796875 -60.203125 L 26.796875 -10.59375 C 26.796875 -8.195312 26.976562 -6.398438 27.34375 -5.203125 C 27.71875 -4.003906 28.4375 -3.203125 29.5 -2.796875 C 30.5625 -2.398438 32.160156 -2.132812 34.296875 -2 L 34.296875 0 C 32.492188 -0.132812 30.226562 -0.21875 27.5 -0.25 C 24.769531 -0.28125 22.003906 -0.296875 19.203125 -0.296875 C 16.003906 -0.296875 12.988281 -0.28125 10.15625 -0.25 C 7.320312 -0.21875 5.070312 -0.132812 3.40625 0 L 3.40625 -2 C 5.53125 -2.132812 7.125 -2.398438 8.1875 -2.796875 C 9.257812 -3.203125 9.976562 -4.003906 10.34375 -5.203125 C 10.71875 -6.398438 10.90625 -8.195312 10.90625 -10.59375 L 10.90625 -60.203125 C 10.90625 -62.671875 10.71875 -64.488281 10.34375 -65.65625 C 9.976562 -66.820312 9.242188 -67.617188 8.140625 -68.046875 C 7.046875 -68.484375 5.46875 -68.734375 3.40625 -68.796875 L 3.40625 -70.796875 C 5.070312 -70.734375 7.320312 -70.664062 10.15625 -70.59375 C 12.988281 -70.53125 16.003906 -70.5 19.203125 -70.5 C 22.003906 -70.5 24.769531 -70.53125 27.5 -70.59375 C 30.226562 -70.664062 32.492188 -70.734375 34.296875 -70.796875 Z M 34.296875 -70.796875 "/></g></g></g></svg>