<svg xmlns="http://www.w3.org/2000/svg" xmlns:xlink="http://www.w3.org/1999/xlink" width="700" zoomAndPan="magnify" viewBox="0 0 525 749.999995" height="1000" preserveAspectRatio="xMidYMid meet" version="1.0"><defs><g/><clipPath id="981c26d378"><path d="M 24.75 0 L 500.25 0 C 513.917969 0 525 11.082031 525 24.75 L 525 725.25 C 525 738.917969 513.917969 750 500.25 750 L 24.75 750 C 11.082031 750 0 738.917969 0 725.25 L 0 24.75 C 0 11.082031 11.082031 0 24.75 0 Z M 24.75 0 " clip-rule="nonzero"/></clipPath></defs><g clip-path="url(#981c26d378)"><rect x="-52.5" width="630" fill="#eeeeee" y="-74.999999" height="899.999994" fill-opacity="1"/></g><path fill="#dd2e44" d="M 264.96875 485.257812 C 263.460938 487.351562 261.035156 487.351562 259.527344 485.257812 L 183.300781 378.753906 C 181.796875 376.65625 181.796875 373.25 183.300781 371.148438 L 259.527344 264.644531 C 261.035156 262.542969 263.460938 262.542969 264.96875 264.644531 L 341.199219 371.148438 C 342.699219 373.25 342.699219 376.65625 341.199219 378.753906 Z M 264.96875 485.257812 " fill-opacity="1" fill-rule="nonzero"/><g fill="#dd2e44" fill-opacity="1"><g transform="translate(29.896505, 111.200925)"><g><path d="M 76.40625 -1.203125 L 78.203125 -0.703125 C 77.671875 2.960938 76.835938 6.113281 75.703125 8.75 C 74.566406 11.382812 73.097656 13.4375 71.296875 14.90625 C 69.898438 16.03125 68.082031 16.957031 65.84375 17.6875 C 63.613281 18.425781 61.132812 18.796875 58.40625 18.796875 C 54.738281 18.796875 51.15625 18.226562 47.65625 17.09375 C 44.15625 15.96875 40.601562 14.585938 37 12.953125 C 33.394531 11.316406 29.59375 9.734375 25.59375 8.203125 C 25.132812 8.066406 24.6875 7.914062 24.25 7.75 C 23.8125 7.582031 23.460938 7.5 23.203125 7.5 C 21.929688 8.101562 20.546875 8.601562 19.046875 9 C 17.546875 9.394531 16.128906 9.59375 14.796875 9.59375 C 13.460938 9.59375 12.34375 9.394531 11.4375 9 C 10.539062 8.601562 10.09375 7.9375 10.09375 7 C 10.09375 5.195312 11.925781 4.296875 15.59375 4.296875 C 17.925781 4.296875 20.460938 4.765625 23.203125 5.703125 C 25.671875 5.035156 27.785156 4.285156 29.546875 3.453125 C 31.316406 2.617188 33.148438 1.832031 35.046875 1.09375 C 36.953125 0.363281 39.269531 -0.0976562 42 -0.296875 L 42.09375 1.296875 C 39.96875 1.492188 38.15625 1.875 36.65625 2.4375 C 35.15625 3.007812 33.632812 3.628906 32.09375 4.296875 C 30.5625 4.960938 28.765625 5.597656 26.703125 6.203125 C 31.429688 6.535156 35.828125 6.882812 39.890625 7.25 C 43.960938 7.613281 47.734375 7.84375 51.203125 7.9375 C 54.671875 8.039062 57.800781 7.894531 60.59375 7.5 C 64.726562 7.03125 67.992188 6.128906 70.390625 4.796875 C 72.796875 3.460938 74.800781 1.460938 76.40625 -1.203125 Z M 39.703125 -72.203125 C 46.765625 -72.203125 52.945312 -70.765625 58.25 -67.890625 C 63.550781 -65.023438 67.664062 -60.910156 70.59375 -55.546875 C 73.53125 -50.179688 75 -43.664062 75 -36 C 75 -28.53125 73.5 -21.992188 70.5 -16.390625 C 67.5 -10.796875 63.316406 -6.429688 57.953125 -3.296875 C 52.585938 -0.160156 46.46875 1.40625 39.59375 1.40625 C 32.53125 1.40625 26.347656 -0.0234375 21.046875 -2.890625 C 15.742188 -5.765625 11.625 -9.898438 8.6875 -15.296875 C 5.757812 -20.703125 4.296875 -27.203125 4.296875 -34.796875 C 4.296875 -42.265625 5.8125 -48.796875 8.84375 -54.390625 C 11.882812 -59.992188 16.050781 -64.363281 21.34375 -67.5 C 26.644531 -70.632812 32.765625 -72.203125 39.703125 -72.203125 Z M 39.296875 -70.40625 C 35.566406 -70.40625 32.316406 -68.90625 29.546875 -65.90625 C 26.785156 -62.90625 24.65625 -58.769531 23.15625 -53.5 C 21.65625 -48.226562 20.90625 -42.128906 20.90625 -35.203125 C 20.90625 -28.128906 21.753906 -21.976562 23.453125 -16.75 C 25.148438 -11.519531 27.445312 -7.488281 30.34375 -4.65625 C 33.25 -1.820312 36.46875 -0.40625 40 -0.40625 C 43.726562 -0.40625 46.976562 -1.90625 49.75 -4.90625 C 52.519531 -7.90625 54.65625 -12.050781 56.15625 -17.34375 C 57.65625 -22.644531 58.40625 -28.726562 58.40625 -35.59375 C 58.40625 -42.726562 57.550781 -48.894531 55.84375 -54.09375 C 54.144531 -59.300781 51.84375 -63.320312 48.9375 -66.15625 C 46.039062 -68.988281 42.828125 -70.40625 39.296875 -70.40625 Z M 39.296875 -70.40625 "/></g></g></g></svg>