<svg xmlns="http://www.w3.org/2000/svg" xmlns:xlink="http://www.w3.org/1999/xlink" width="700" zoomAndPan="magnify" viewBox="0 0 525 749.999995" height="1000" preserveAspectRatio="xMidYMid meet" version="1.0"><defs><g/><clipPath id="55019b673e"><path d="M 24.75 0 L 500.25 0 C 513.917969 0 525 11.082031 525 24.75 L 525 725.25 C 525 738.917969 513.917969 750 500.25 750 L 24.75 750 C 11.082031 750 0 738.917969 0 725.25 L 0 24.75 C 0 11.082031 11.082031 0 24.75 0 Z M 24.75 0 " clip-rule="nonzero"/></clipPath></defs><g clip-path="url(#55019b673e)"><rect x="-52.5" width="630" fill="#eeeeee" y="-74.999999" height="899.999994" fill-opacity="1"/></g><path fill="#dd2e44" d="M 264.96875 485.257812 C 263.460938 487.351562 261.035156 487.351562 259.527344 485.257812 L 183.300781 378.753906 C 181.796875 376.65625 181.796875 373.25 183.300781 371.148438 L 259.527344 264.644531 C 261.035156 262.542969 263.460938 262.542969 264.96875 264.644531 L 341.199219 371.148438 C 342.699219 373.25 342.699219 376.65625 341.199219 378.753906 Z M 264.96875 485.257812 " fill-opacity="1" fill-rule="nonzero"/><g fill="#dd2e44" fill-opacity="1"><g transform="translate(43.144553, 111.200874)"><g><path d="M 38.09375 -53.09375 L 38.5 -50.5 L 7.296875 -10.5 L 8.703125 -13.90625 L 40.5 -13.90625 C 43.226562 -13.90625 44.957031 -14.238281 45.6875 -14.90625 C 46.425781 -15.570312 46.929688 -16.738281 47.203125 -18.40625 L 49.296875 -18.40625 C 49.296875 -14.40625 49.328125 -11.285156 49.390625 -9.046875 C 49.460938 -6.816406 49.566406 -4.832031 49.703125 -3.09375 C 49.234375 -3.226562 48.363281 -3.3125 47.09375 -3.34375 C 45.832031 -3.382812 44.332031 -3.4375 42.59375 -3.5 C 40.863281 -3.5625 39.113281 -3.59375 37.34375 -3.59375 C 35.582031 -3.59375 33.9375 -3.59375 32.40625 -3.59375 L 0.796875 -3.59375 L 0.796875 -5.703125 Z M 39.703125 -53.09375 L 39.703125 14.09375 L 28.09375 14.09375 L 28.09375 -39 L 38.09375 -53.09375 Z M 39.703125 -53.09375 "/></g></g></g></svg>