<svg xmlns="http://www.w3.org/2000/svg" xmlns:xlink="http://www.w3.org/1999/xlink" width="700" zoomAndPan="magnify" viewBox="0 0 525 749.999995" height="1000" preserveAspectRatio="xMidYMid meet" version="1.0"><defs><g/><clipPath id="81d6e30326"><path d="M 24.75 0 L 500.25 0 C 513.917969 0 525 11.082031 525 24.75 L 525 725.25 C 525 738.917969 513.917969 750 500.25 750 L 24.75 750 C 11.082031 750 0 738.917969 0 725.25 L 0 24.75 C 0 11.082031 11.082031 0 24.75 0 Z M 24.75 0 " clip-rule="nonzero"/></clipPath><clipPath id="02e3cf5526"><path d="M 149 276 L 376 276 L 376 473.449219 L 149 473.449219 Z M 149 276 " clip-rule="nonzero"/></clipPath><clipPath id="049af9db91"><path d="M 158.90625 307.988281 C 140.664062 338.046875 153.515625 367.304688 169.671875 382.835938 L 264.117188 473.449219 L 356.574219 383.15625 C 371.597656 366.453125 377.355469 348.734375 374.160156 329.003906 C 369.742188 301.710938 347.25 280.539062 319.464844 277.511719 C 302.425781 275.679688 285.964844 280.5 273.117188 291.175781 C 269.660156 294.050781 266.570312 297.261719 263.875 300.75 C 260.679688 296.777344 256.933594 293.140625 252.691406 289.917969 C 237.917969 278.691406 219.113281 274.234375 201.050781 277.699219 C 183.941406 281.007812 168.582031 292.042969 158.90625 307.988281 Z M 158.90625 307.988281 " clip-rule="nonzero"/></clipPath></defs><g clip-path="url(#81d6e30326)"><rect x="-52.5" width="630" fill="#eeeeee" y="-74.999999" height="899.999994" fill-opacity="1"/></g><g clip-path="url(#02e3cf5526)"><g clip-path="url(#049af9db91)"><path fill="#dd2e44" d="M 149.988281 276.550781 L 375.011719 276.550781 L 375.011719 473.449219 L 149.988281 473.449219 Z M 149.988281 276.550781 " fill-opacity="1" fill-rule="nonzero"/></g></g><g fill="#dd2e44" fill-opacity="1"><g transform="translate(41.492208, 111.200925)"><g><path d="M 28.796875 -72.203125 C 32.597656 -72.203125 35.984375 -71.617188 38.953125 -70.453125 C 41.921875 -69.285156 44.238281 -67.664062 45.90625 -65.59375 C 47.570312 -63.53125 48.40625 -61.066406 48.40625 -58.203125 C 48.40625 -54.597656 47.085938 -51.476562 44.453125 -48.84375 C 41.816406 -46.21875 38.164062 -43.738281 33.5 -41.40625 L 32.703125 -42.796875 C 33.765625 -44.128906 34.59375 -45.628906 35.1875 -47.296875 C 35.789062 -48.960938 36.207031 -50.695312 36.4375 -52.5 C 36.675781 -54.300781 36.796875 -55.9375 36.796875 -57.40625 C 36.796875 -61.46875 36.007812 -64.648438 34.4375 -66.953125 C 32.875 -69.253906 30.726562 -70.40625 28 -70.40625 C 25.726562 -70.40625 23.957031 -69.632812 22.6875 -68.09375 C 21.425781 -66.5625 20.796875 -64.5625 20.796875 -62.09375 C 20.796875 -59.226562 21.546875 -56.5625 23.046875 -54.09375 C 24.546875 -51.632812 26.476562 -49.300781 28.84375 -47.09375 C 31.21875 -44.894531 33.738281 -42.695312 36.40625 -40.5 C 39.070312 -38.300781 41.585938 -36.035156 43.953125 -33.703125 C 46.316406 -31.367188 48.25 -28.882812 49.75 -26.25 C 51.25 -23.613281 52 -20.695312 52 -17.5 C 52 -13.769531 50.929688 -10.503906 48.796875 -7.703125 C 46.660156 -4.898438 43.757812 -2.679688 40.09375 -1.046875 C 36.425781 0.585938 32.226562 1.40625 27.5 1.40625 C 23.363281 1.40625 19.53125 0.769531 16 -0.5 C 12.46875 -1.769531 9.632812 -3.6875 7.5 -6.25 C 5.363281 -8.8125 4.296875 -11.960938 4.296875 -15.703125 C 4.296875 -18.898438 5.0625 -21.75 6.59375 -24.25 C 8.132812 -26.75 10.21875 -28.929688 12.84375 -30.796875 C 15.476562 -32.660156 18.429688 -34.257812 21.703125 -35.59375 L 22.5 -34.203125 C 20.300781 -32.003906 18.785156 -29.4375 17.953125 -26.5 C 17.117188 -23.5625 16.703125 -20.5625 16.703125 -17.5 C 16.703125 -14.4375 17.050781 -11.601562 17.75 -9 C 18.445312 -6.394531 19.628906 -4.3125 21.296875 -2.75 C 22.960938 -1.1875 25.195312 -0.40625 28 -0.40625 C 31.195312 -0.40625 33.675781 -1.40625 35.4375 -3.40625 C 37.207031 -5.40625 38.09375 -8.003906 38.09375 -11.203125 C 38.09375 -14.265625 37.359375 -17.046875 35.890625 -19.546875 C 34.429688 -22.046875 32.550781 -24.410156 30.25 -26.640625 C 27.945312 -28.878906 25.476562 -31.066406 22.84375 -33.203125 C 20.21875 -35.335938 17.753906 -37.519531 15.453125 -39.75 C 13.148438 -41.976562 11.265625 -44.410156 9.796875 -47.046875 C 8.328125 -49.679688 7.59375 -52.632812 7.59375 -55.90625 C 7.59375 -59.570312 8.578125 -62.601562 10.546875 -65 C 12.515625 -67.394531 15.113281 -69.191406 18.34375 -70.390625 C 21.582031 -71.597656 25.066406 -72.203125 28.796875 -72.203125 Z M 28.796875 -72.203125 "/></g></g></g></svg>