<svg xmlns="http://www.w3.org/2000/svg" xmlns:xlink="http://www.w3.org/1999/xlink" width="700" zoomAndPan="magnify" viewBox="0 0 525 749.999995" height="1000" preserveAspectRatio="xMidYMid meet" version="1.0"><defs><g/><clipPath id="b1eab23893"><path d="M 24.75 0 L 500.25 0 C 513.917969 0 525 11.082031 525 24.75 L 525 725.25 C 525 738.917969 513.917969 750 500.25 750 L 24.75 750 C 11.082031 750 0 738.917969 0 725.25 L 0 24.75 C 0 11.082031 11.082031 0 24.75 0 Z M 24.75 0 " clip-rule="nonzero"/></clipPath><clipPath id="1f1095f6b4"><path d="M 149 276 L 376 276 L 376 473.449219 L 149 473.449219 Z M 149 276 " clip-rule="nonzero"/></clipPath><clipPath id="9c942b56f2"><path d="M 158.90625 307.988281 C 140.664062 338.046875 153.515625 367.304688 169.671875 382.835938 L 264.117188 473.449219 L 356.574219 383.15625 C 371.597656 366.453125 377.355469 348.734375 374.160156 329.003906 C 369.742188 301.710938 347.25 280.539062 319.464844 277.511719 C 302.425781 275.679688 285.964844 280.5 273.117188 291.175781 C 269.660156 294.050781 266.570312 297.261719 263.875 300.75 C 260.679688 296.777344 256.933594 293.140625 252.691406 289.917969 C 237.917969 278.691406 219.113281 274.234375 201.050781 277.699219 C 183.941406 281.007812 168.582031 292.042969 158.90625 307.988281 Z M 158.90625 307.988281 " clip-rule="nonzero"/></clipPath></defs><g clip-path="url(#b1eab23893)"><rect x="-52.5" width="630" fill="#eeeeee" y="-74.999999" height="899.999994" fill-opacity="1"/></g><g clip-path="url(#1f1095f6b4)"><g clip-path="url(#9c942b56f2)"><path fill="#dd2e44" d="M 149.988281 276.550781 L 375.011719 276.550781 L 375.011719 473.449219 L 149.988281 473.449219 Z M 149.988281 276.550781 " fill-opacity="1" fill-rule="nonzero"/></g></g><g fill="#dd2e44" fill-opacity="1"><g transform="translate(46.794943, 111.200933)"><g><path d="M 2.296875 -52.09375 C 2.898438 -51.96875 4 -51.867188 5.59375 -51.796875 C 7.195312 -51.734375 9.03125 -51.679688 11.09375 -51.640625 C 13.164062 -51.609375 15.203125 -51.59375 17.203125 -51.59375 L 45.40625 -51.59375 L 45.40625 -49.5 C 44.132812 -46.5 42.515625 -43.28125 40.546875 -39.84375 C 38.578125 -36.414062 36.609375 -32.679688 34.640625 -28.640625 C 32.679688 -24.609375 31.050781 -20.273438 29.75 -15.640625 C 28.445312 -11.015625 27.796875 -6 27.796875 -0.59375 C 27.796875 -0.195312 27.84375 0.53125 27.9375 1.59375 C 28.039062 2.664062 28.125 3.75 28.1875 4.84375 C 28.257812 5.945312 28.296875 6.832031 28.296875 7.5 C 28.296875 9.363281 27.695312 11.046875 26.5 12.546875 C 25.300781 14.046875 23.46875 14.796875 21 14.796875 C 18.53125 14.796875 16.695312 13.960938 15.5 12.296875 C 14.300781 10.628906 13.703125 8.53125 13.703125 6 C 13.703125 2.332031 14.367188 -1.296875 15.703125 -4.890625 C 17.035156 -8.492188 18.765625 -12.046875 20.890625 -15.546875 C 23.023438 -19.046875 25.328125 -22.460938 27.796875 -25.796875 C 30.265625 -29.128906 32.679688 -32.328125 35.046875 -35.390625 C 37.410156 -38.460938 39.460938 -41.363281 41.203125 -44.09375 L 38.90625 -39.5 L 11.5 -39.5 C 8.769531 -39.5 7.035156 -39.164062 6.296875 -38.5 C 5.566406 -37.832031 5.066406 -36.664062 4.796875 -35 L 2.703125 -35 C 2.703125 -39.394531 2.664062 -42.875 2.59375 -45.4375 C 2.53125 -48.007812 2.429688 -50.226562 2.296875 -52.09375 Z M 2.296875 -52.09375 "/></g></g></g></svg>