<svg xmlns="http://www.w3.org/2000/svg" xmlns:xlink="http://www.w3.org/1999/xlink" width="700" zoomAndPan="magnify" viewBox="0 0 525 749.999995" height="1000" preserveAspectRatio="xMidYMid meet" version="1.0"><defs><g/><clipPath id="40b56f99be"><path d="M 24.75 0 L 500.25 0 C 513.917969 0 525 11.082031 525 24.75 L 525 725.25 C 525 738.917969 513.917969 750 500.25 750 L 24.75 750 C 11.082031 750 0 738.917969 0 725.25 L 0 24.75 C 0 11.082031 11.082031 0 24.75 0 Z M 24.75 0 " clip-rule="nonzero"/></clipPath><clipPath id="c0ed158ba1"><path d="M 149 276 L 376 276 L 376 473.449219 L 149 473.449219 Z M 149 276 " clip-rule="nonzero"/></clipPath><clipPath id="c5cbd4a644"><path d="M 158.90625 307.988281 C 140.664062 338.046875 153.515625 367.304688 169.671875 382.835938 L 264.117188 473.449219 L 356.574219 383.15625 C 371.597656 366.453125 377.355469 348.734375 374.160156 329.003906 C 369.742188 301.710938 347.25 280.539062 319.464844 277.511719 C 302.425781 275.679688 285.964844 280.5 273.117188 291.175781 C 269.660156 294.050781 266.570312 297.261719 263.875 300.75 C 260.679688 296.777344 256.933594 293.140625 252.691406 289.917969 C 237.917969 278.691406 219.113281 274.234375 201.050781 277.699219 C 183.941406 281.007812 168.582031 292.042969 158.90625 307.988281 Z M 158.90625 307.988281 " clip-rule="nonzero"/></clipPath></defs><g clip-path="url(#40b56f99be)"><rect x="-52.5" width="630" fill="#eeeeee" y="-74.999999" height="899.999994" fill-opacity="1"/></g><g clip-path="url(#c0ed158ba1)"><g clip-path="url(#c5cbd4a644)"><path fill="#dd2e44" d="M 149.988281 276.550781 L 375.011719 276.550781 L 375.011719 473.449219 L 149.988281 473.449219 Z M 149.988281 276.550781 " fill-opacity="1" fill-rule="nonzero"/></g></g><g fill="#dd2e44" fill-opacity="1"><g transform="translate(27.459434, 100.250171)"><g><path d="M 28.203125 -52.796875 L 28.203125 -9.703125 C 28.203125 -6.765625 28.75 -4.757812 29.84375 -3.6875 C 30.945312 -2.625 32.800781 -2.09375 35.40625 -2.09375 L 35.40625 0 C 34.070312 -0.0625 32.117188 -0.144531 29.546875 -0.25 C 26.984375 -0.351562 24.332031 -0.40625 21.59375 -0.40625 C 18.195312 -0.40625 14.914062 -0.351562 11.75 -0.25 C 8.582031 -0.144531 6.132812 -0.0625 4.40625 0 L 4.40625 -2.09375 C 7.40625 -2.09375 9.71875 -2.644531 11.34375 -3.75 C 12.976562 -4.851562 13.796875 -7.035156 13.796875 -10.296875 L 13.796875 -34.703125 C 13.796875 -37.898438 13.53125 -40.265625 13 -41.796875 C 12.46875 -43.328125 11.46875 -44.328125 10 -44.796875 C 8.53125 -45.265625 6.53125 -45.5 4 -45.5 L 4 -47.703125 C 9.726562 -47.835938 14.476562 -48.269531 18.25 -49 C 22.019531 -49.726562 25.335938 -50.992188 28.203125 -52.796875 Z M 28.203125 -52.796875 "/></g></g></g><g fill="#dd2e44" fill-opacity="1"><g transform="translate(65.757955, 100.250171)"><g><path d="M 32.796875 -53.09375 C 38.128906 -53.09375 42.828125 -52.007812 46.890625 -49.84375 C 50.960938 -47.675781 54.164062 -44.609375 56.5 -40.640625 C 58.832031 -36.679688 60 -32.035156 60 -26.703125 C 60 -21.367188 58.816406 -16.582031 56.453125 -12.34375 C 54.085938 -8.113281 50.785156 -4.765625 46.546875 -2.296875 C 42.316406 0.171875 37.367188 1.40625 31.703125 1.40625 C 26.503906 1.40625 21.851562 0.304688 17.75 -1.890625 C 13.644531 -4.097656 10.410156 -7.179688 8.046875 -11.140625 C 5.679688 -15.109375 4.5 -19.757812 4.5 -25.09375 C 4.5 -30.363281 5.664062 -35.113281 8 -39.34375 C 10.332031 -43.582031 13.628906 -46.929688 17.890625 -49.390625 C 22.160156 -51.859375 27.128906 -53.09375 32.796875 -53.09375 Z M 31.90625 -51.296875 C 28.300781 -51.296875 25.347656 -49.007812 23.046875 -44.4375 C 20.742188 -39.875 19.59375 -33.53125 19.59375 -25.40625 C 19.59375 -19.40625 20.191406 -14.570312 21.390625 -10.90625 C 22.597656 -7.238281 24.179688 -4.570312 26.140625 -2.90625 C 28.109375 -1.238281 30.257812 -0.40625 32.59375 -0.40625 C 36.195312 -0.40625 39.148438 -2.703125 41.453125 -7.296875 C 43.753906 -11.898438 44.90625 -18.269531 44.90625 -26.40625 C 44.90625 -32.40625 44.300781 -37.238281 43.09375 -40.90625 C 41.894531 -44.570312 40.3125 -47.21875 38.34375 -48.84375 C 36.382812 -50.476562 34.238281 -51.296875 31.90625 -51.296875 Z M 31.90625 -51.296875 "/></g></g></g></svg>