<svg xmlns="http://www.w3.org/2000/svg" xmlns:xlink="http://www.w3.org/1999/xlink" width="700" zoomAndPan="magnify" viewBox="0 0 525 749.999995" height="1000" preserveAspectRatio="xMidYMid meet" version="1.0"><defs><g/><clipPath id="2ab29bb4f4"><path d="M 24.75 0 L 500.25 0 C 513.917969 0 525 11.082031 525 24.75 L 525 725.25 C 525 738.917969 513.917969 750 500.25 750 L 24.75 750 C 11.082031 750 0 738.917969 0 725.25 L 0 24.75 C 0 11.082031 11.082031 0 24.75 0 Z M 24.75 0 " clip-rule="nonzero"/></clipPath><clipPath id="64142dab57"><path d="M 149 276 L 376 276 L 376 473.449219 L 149 473.449219 Z M 149 276 " clip-rule="nonzero"/></clipPath><clipPath id="a22451e43a"><path d="M 158.90625 307.988281 C 140.664062 338.046875 153.515625 367.304688 169.671875 382.835938 L 264.117188 473.449219 L 356.574219 383.15625 C 371.597656 366.453125 377.355469 348.734375 374.160156 329.003906 C 369.742188 301.710938 347.25 280.539062 319.464844 277.511719 C 302.425781 275.679688 285.964844 280.5 273.117188 291.175781 C 269.660156 294.050781 266.570312 297.261719 263.875 300.75 C 260.679688 296.777344 256.933594 293.140625 252.691406 289.917969 C 237.917969 278.691406 219.113281 274.234375 201.050781 277.699219 C 183.941406 281.007812 168.582031 292.042969 158.90625 307.988281 Z M 158.90625 307.988281 " clip-rule="nonzero"/></clipPath></defs><g clip-path="url(#2ab29bb4f4)"><rect x="-52.5" width="630" fill="#eeeeee" y="-74.999999" height="899.999994" fill-opacity="1"/></g><g clip-path="url(#64142dab57)"><g clip-path="url(#a22451e43a)"><path fill="#dd2e44" d="M 149.988281 276.550781 L 375.011719 276.550781 L 375.011719 473.449219 L 149.988281 473.449219 Z M 149.988281 276.550781 " fill-opacity="1" fill-rule="nonzero"/></g></g><g fill="#dd2e44" fill-opacity="1"><g transform="translate(41.492208, 111.200991)"><g><path d="M 44.59375 -72.296875 L 45 -70.296875 C 42.601562 -69.492188 40.203125 -68.523438 37.796875 -67.390625 C 35.398438 -66.265625 33.117188 -64.703125 30.953125 -62.703125 C 28.785156 -60.703125 26.867188 -58.148438 25.203125 -55.046875 C 23.535156 -51.953125 22.21875 -48.070312 21.25 -43.40625 C 20.28125 -38.738281 19.796875 -33.101562 19.796875 -26.5 C 19.796875 -19.894531 20.28125 -14.707031 21.25 -10.9375 C 22.21875 -7.175781 23.429688 -4.507812 24.890625 -2.9375 C 26.359375 -1.375 27.796875 -0.59375 29.203125 -0.59375 C 30.734375 -0.59375 32.164062 -1.289062 33.5 -2.6875 C 34.832031 -4.09375 35.914062 -6.328125 36.75 -9.390625 C 37.582031 -12.460938 38 -16.5 38 -21.5 C 38 -26.300781 37.613281 -30.132812 36.84375 -33 C 36.082031 -35.863281 35.066406 -37.925781 33.796875 -39.1875 C 32.535156 -40.457031 31.101562 -41.09375 29.5 -41.09375 C 28.363281 -41.09375 27.09375 -40.757812 25.6875 -40.09375 C 24.289062 -39.425781 22.992188 -38.359375 21.796875 -36.890625 C 20.597656 -35.429688 19.734375 -33.367188 19.203125 -30.703125 L 18.296875 -31.09375 C 18.703125 -34.300781 19.6875 -36.851562 21.25 -38.75 C 22.8125 -40.644531 24.691406 -41.992188 26.890625 -42.796875 C 29.097656 -43.597656 31.300781 -44 33.5 -44 C 37.101562 -44 40.367188 -43.128906 43.296875 -41.390625 C 46.234375 -39.660156 48.597656 -37.195312 50.390625 -34 C 52.191406 -30.800781 53.09375 -26.9375 53.09375 -22.40625 C 53.09375 -17.269531 51.957031 -12.929688 49.6875 -9.390625 C 47.425781 -5.859375 44.394531 -3.175781 40.59375 -1.34375 C 36.800781 0.488281 32.671875 1.40625 28.203125 1.40625 C 20.867188 1.40625 15.117188 -1.078125 10.953125 -6.046875 C 6.785156 -11.015625 4.703125 -18.03125 4.703125 -27.09375 C 4.703125 -33.09375 5.566406 -38.425781 7.296875 -43.09375 C 9.035156 -47.757812 11.335938 -51.8125 14.203125 -55.25 C 17.066406 -58.6875 20.25 -61.570312 23.75 -63.90625 C 27.25 -66.238281 30.816406 -68.085938 34.453125 -69.453125 C 38.085938 -70.816406 41.46875 -71.765625 44.59375 -72.296875 Z M 44.59375 -72.296875 "/></g></g></g></svg>