<svg xmlns="http://www.w3.org/2000/svg" xmlns:xlink="http://www.w3.org/1999/xlink" width="700" zoomAndPan="magnify" viewBox="0 0 525 749.999995" height="1000" preserveAspectRatio="xMidYMid meet" version="1.0"><defs><g/><clipPath id="754a5017a2"><path d="M 24.75 0 L 500.25 0 C 513.917969 0 525 11.082031 525 24.75 L 525 725.25 C 525 738.917969 513.917969 750 500.25 750 L 24.75 750 C 11.082031 750 0 738.917969 0 725.25 L 0 24.75 C 0 11.082031 11.082031 0 24.75 0 Z M 24.75 0 " clip-rule="nonzero"/></clipPath><clipPath id="5e094ee1e0"><path d="M 149 276 L 376 276 L 376 473.449219 L 149 473.449219 Z M 149 276 " clip-rule="nonzero"/></clipPath><clipPath id="26bfa1f0a7"><path d="M 158.90625 307.988281 C 140.664062 338.046875 153.515625 367.304688 169.671875 382.835938 L 264.117188 473.449219 L 356.574219 383.15625 C 371.597656 366.453125 377.355469 348.734375 374.160156 329.003906 C 369.742188 301.710938 347.25 280.539062 319.464844 277.511719 C 302.425781 275.679688 285.964844 280.5 273.117188 291.175781 C 269.660156 294.050781 266.570312 297.261719 263.875 300.75 C 260.679688 296.777344 256.933594 293.140625 252.691406 289.917969 C 237.917969 278.691406 219.113281 274.234375 201.050781 277.699219 C 183.941406 281.007812 168.582031 292.042969 158.90625 307.988281 Z M 158.90625 307.988281 " clip-rule="nonzero"/></clipPath></defs><g clip-path="url(#754a5017a2)"><rect x="-52.5" width="630" fill="#eeeeee" y="-74.999999" height="899.999994" fill-opacity="1"/></g><g clip-path="url(#5e094ee1e0)"><g clip-path="url(#26bfa1f0a7)"><path fill="#dd2e44" d="M 149.988281 276.550781 L 375.011719 276.550781 L 375.011719 473.449219 L 149.988281 473.449219 Z M 149.988281 276.550781 " fill-opacity="1" fill-rule="nonzero"/></g></g><g fill="#dd2e44" fill-opacity="1"><g transform="translate(51.341817, 111.200991)"><g><path d="M -2.296875 18.796875 L -2.296875 16.796875 C 0.367188 16.535156 2.632812 15.753906 4.5 14.453125 C 6.363281 13.148438 7.796875 10.929688 8.796875 7.796875 C 9.796875 4.660156 10.296875 0.257812 10.296875 -5.40625 L 10.296875 -60.203125 C 10.296875 -62.671875 10.113281 -64.488281 9.75 -65.65625 C 9.382812 -66.820312 8.664062 -67.617188 7.59375 -68.046875 C 6.53125 -68.484375 4.929688 -68.734375 2.796875 -68.796875 L 2.796875 -70.796875 C 4.460938 -70.734375 6.644531 -70.664062 9.34375 -70.59375 C 12.050781 -70.53125 14.90625 -70.5 17.90625 -70.5 C 20.90625 -70.5 23.820312 -70.53125 26.65625 -70.59375 C 29.488281 -70.664062 31.835938 -70.734375 33.703125 -70.796875 L 33.703125 -68.796875 C 31.628906 -68.734375 30.039062 -68.484375 28.9375 -68.046875 C 27.84375 -67.617188 27.113281 -66.820312 26.75 -65.65625 C 26.382812 -64.488281 26.203125 -62.671875 26.203125 -60.203125 L 26.203125 -23.59375 C 26.203125 -20.863281 26.203125 -17.914062 26.203125 -14.75 C 26.203125 -11.582031 26.082031 -8.5 25.84375 -5.5 C 25.613281 -2.5 25.164062 0.164062 24.5 2.5 C 23.164062 7.101562 20.28125 10.96875 15.84375 14.09375 C 11.414062 17.226562 5.367188 18.796875 -2.296875 18.796875 Z M -2.296875 18.796875 "/></g></g></g></svg>