<svg xmlns="http://www.w3.org/2000/svg" xmlns:xlink="http://www.w3.org/1999/xlink" width="700" zoomAndPan="magnify" viewBox="0 0 525 749.999995" height="1000" preserveAspectRatio="xMidYMid meet" version="1.0"><defs><g/><clipPath id="3b758a153f"><path d="M 24.75 0 L 500.25 0 C 513.917969 0 525 11.082031 525 24.75 L 525 725.25 C 525 738.917969 513.917969 750 500.25 750 L 24.75 750 C 11.082031 750 0 738.917969 0 725.25 L 0 24.75 C 0 11.082031 11.082031 0 24.75 0 Z M 24.75 0 " clip-rule="nonzero"/></clipPath></defs><g clip-path="url(#3b758a153f)"><rect x="-52.5" width="630" fill="#eeeeee" y="-74.999999" height="899.999994" fill-opacity="1"/></g><path fill="#2b2b2b" d="M 355.867188 435 C 335.117188 456.617188 301.695312 456.617188 281 435 L 273.871094 427.539062 C 274.519531 434.40625 275.941406 442.515625 278.71875 451.226562 C 283.339844 465.769531 289.925781 476.710938 295.050781 483.902344 L 229.714844 483.902344 C 234.832031 476.710938 241.421875 465.769531 246.050781 451.226562 C 248.828125 442.460938 250.238281 434.40625 250.894531 427.484375 L 243.757812 435 C 223.125 456.617188 189.640625 456.617188 168.957031 435 C 150.382812 415.5625 149.296875 389.53125 161.546875 366.660156 C 185.773438 321.742188 240.710938 282.421875 262.382812 266.085938 C 284.046875 282.421875 338.875 321.742188 363.21875 366.660156 C 375.460938 389.53125 374.375 415.5625 355.867188 435 " fill-opacity="1" fill-rule="nonzero"/><g fill="#2b2b2b" fill-opacity="1"><g transform="translate(36.195333, 111.200991)"><g><path d="M 36.796875 -71 L 61.09375 -8.40625 C 62.03125 -6 63.082031 -4.34375 64.25 -3.4375 C 65.414062 -2.539062 66.46875 -2.0625 67.40625 -2 L 67.40625 0 C 65.40625 -0.132812 63.050781 -0.21875 60.34375 -0.25 C 57.644531 -0.28125 54.929688 -0.296875 52.203125 -0.296875 C 49.128906 -0.296875 46.226562 -0.28125 43.5 -0.25 C 40.769531 -0.21875 38.601562 -0.132812 37 0 L 37 -2 C 40.394531 -2.132812 42.539062 -2.71875 43.4375 -3.75 C 44.34375 -4.78125 44.128906 -7 42.796875 -10.40625 L 25.796875 -56.90625 L 27.59375 -59.5 L 12.40625 -19.90625 C 10.9375 -16.238281 10.050781 -13.238281 9.75 -10.90625 C 9.445312 -8.570312 9.613281 -6.769531 10.25 -5.5 C 10.882812 -4.226562 11.914062 -3.34375 13.34375 -2.84375 C 14.78125 -2.34375 16.5 -2.0625 18.5 -2 L 18.5 0 C 16.300781 -0.132812 14.203125 -0.21875 12.203125 -0.25 C 10.203125 -0.28125 8.164062 -0.296875 6.09375 -0.296875 C 4.632812 -0.296875 3.253906 -0.28125 1.953125 -0.25 C 0.648438 -0.21875 -0.5 -0.132812 -1.5 0 L -1.5 -2 C -0.101562 -2.269531 1.328125 -3.171875 2.796875 -4.703125 C 4.265625 -6.234375 5.695312 -8.832031 7.09375 -12.5 L 29.90625 -71 C 30.96875 -70.9375 32.113281 -70.90625 33.34375 -70.90625 C 34.582031 -70.90625 35.734375 -70.9375 36.796875 -71 Z M 43.796875 -28.796875 L 43.796875 -26.796875 L 14 -26.796875 L 15 -28.796875 Z M 43.796875 -28.796875 "/></g></g></g></svg>