<svg xmlns="http://www.w3.org/2000/svg" xmlns:xlink="http://www.w3.org/1999/xlink" width="700" zoomAndPan="magnify" viewBox="0 0 525 749.999995" height="1000" preserveAspectRatio="xMidYMid meet" version="1.0"><defs><g/><clipPath id="dbc1de1f2b"><path d="M 24.75 0 L 500.25 0 C 513.917969 0 525 11.082031 525 24.75 L 525 725.25 C 525 738.917969 513.917969 750 500.25 750 L 24.75 750 C 11.082031 750 0 738.917969 0 725.25 L 0 24.75 C 0 11.082031 11.082031 0 24.75 0 Z M 24.75 0 " clip-rule="nonzero"/></clipPath></defs><g clip-path="url(#dbc1de1f2b)"><rect x="-52.5" width="630" fill="#eeeeee" y="-74.999999" height="899.999994" fill-opacity="1"/></g><path fill="#2b2b2b" d="M 355.867188 435 C 335.117188 456.621094 301.695312 456.621094 281 435 L 273.871094 427.539062 C 274.519531 434.40625 275.941406 442.515625 278.71875 451.226562 C 283.339844 465.769531 289.925781 476.710938 295.050781 483.902344 L 229.714844 483.902344 C 234.832031 476.710938 241.421875 465.769531 246.050781 451.226562 C 248.828125 442.460938 250.238281 434.40625 250.894531 427.484375 L 243.757812 435 C 223.125 456.621094 189.640625 456.621094 168.957031 435 C 150.382812 415.5625 149.296875 389.53125 161.546875 366.660156 C 185.773438 321.742188 240.710938 282.421875 262.382812 266.085938 C 284.046875 282.421875 338.875 321.742188 363.21875 366.660156 C 375.460938 389.53125 374.375 415.5625 355.867188 435 " fill-opacity="1" fill-rule="nonzero"/><g fill="#2b2b2b" fill-opacity="1"><g transform="translate(41.492208, 111.200874)"><g><path d="M 44.59375 -72.296875 L 45 -70.296875 C 42.601562 -69.492188 40.203125 -68.523438 37.796875 -67.390625 C 35.398438 -66.265625 33.117188 -64.703125 30.953125 -62.703125 C 28.785156 -60.703125 26.867188 -58.148438 25.203125 -55.046875 C 23.535156 -51.953125 22.21875 -48.070312 21.25 -43.40625 C 20.28125 -38.738281 19.796875 -33.101562 19.796875 -26.5 C 19.796875 -19.894531 20.28125 -14.707031 21.25 -10.9375 C 22.21875 -7.175781 23.429688 -4.507812 24.890625 -2.9375 C 26.359375 -1.375 27.796875 -0.59375 29.203125 -0.59375 C 30.734375 -0.59375 32.164062 -1.289062 33.5 -2.6875 C 34.832031 -4.09375 35.914062 -6.328125 36.75 -9.390625 C 37.582031 -12.460938 38 -16.5 38 -21.5 C 38 -26.300781 37.613281 -30.132812 36.84375 -33 C 36.082031 -35.863281 35.066406 -37.925781 33.796875 -39.1875 C 32.535156 -40.457031 31.101562 -41.09375 29.5 -41.09375 C 28.363281 -41.09375 27.09375 -40.757812 25.6875 -40.09375 C 24.289062 -39.425781 22.992188 -38.359375 21.796875 -36.890625 C 20.597656 -35.429688 19.734375 -33.367188 19.203125 -30.703125 L 18.296875 -31.09375 C 18.703125 -34.300781 19.6875 -36.851562 21.25 -38.75 C 22.8125 -40.644531 24.691406 -41.992188 26.890625 -42.796875 C 29.097656 -43.597656 31.300781 -44 33.5 -44 C 37.101562 -44 40.367188 -43.128906 43.296875 -41.390625 C 46.234375 -39.660156 48.597656 -37.195312 50.390625 -34 C 52.191406 -30.800781 53.09375 -26.9375 53.09375 -22.40625 C 53.09375 -17.269531 51.957031 -12.929688 49.6875 -9.390625 C 47.425781 -5.859375 44.394531 -3.175781 40.59375 -1.34375 C 36.800781 0.488281 32.671875 1.40625 28.203125 1.40625 C 20.867188 1.40625 15.117188 -1.078125 10.953125 -6.046875 C 6.785156 -11.015625 4.703125 -18.03125 4.703125 -27.09375 C 4.703125 -33.09375 5.566406 -38.425781 7.296875 -43.09375 C 9.035156 -47.757812 11.335938 -51.8125 14.203125 -55.25 C 17.066406 -58.6875 20.25 -61.570312 23.75 -63.90625 C 27.25 -66.238281 30.816406 -68.085938 34.453125 -69.453125 C 38.085938 -70.816406 41.46875 -71.765625 44.59375 -72.296875 Z M 44.59375 -72.296875 "/></g></g></g></svg>