<svg xmlns="http://www.w3.org/2000/svg" xmlns:xlink="http://www.w3.org/1999/xlink" width="700" zoomAndPan="magnify" viewBox="0 0 525 749.999995" height="1000" preserveAspectRatio="xMidYMid meet" version="1.0"><defs><g/><clipPath id="25d9cd9c31"><path d="M 24.75 0 L 500.25 0 C 513.917969 0 525 11.082031 525 24.75 L 525 725.25 C 525 738.917969 513.917969 750 500.25 750 L 24.75 750 C 11.082031 750 0 738.917969 0 725.25 L 0 24.75 C 0 11.082031 11.082031 0 24.75 0 Z M 24.75 0 " clip-rule="nonzero"/></clipPath></defs><g clip-path="url(#25d9cd9c31)"><rect x="-52.5" width="630" fill="#eeeeee" y="-74.999999" height="899.999994" fill-opacity="1"/></g><path fill="#2b2b2b" d="M 355.867188 435 C 335.117188 456.617188 301.695312 456.617188 281 435 L 273.871094 427.539062 C 274.519531 434.40625 275.941406 442.515625 278.71875 451.226562 C 283.339844 465.769531 289.925781 476.710938 295.050781 483.902344 L 229.714844 483.902344 C 234.832031 476.710938 241.421875 465.769531 246.050781 451.226562 C 248.828125 442.460938 250.238281 434.40625 250.894531 427.484375 L 243.757812 435 C 223.125 456.617188 189.640625 456.617188 168.957031 435 C 150.382812 415.5625 149.296875 389.53125 161.546875 366.660156 C 185.773438 321.742188 240.710938 282.421875 262.382812 266.085938 C 284.046875 282.421875 338.875 321.742188 363.21875 366.660156 C 375.460938 389.53125 374.375 415.5625 355.867188 435 " fill-opacity="1" fill-rule="nonzero"/><g fill="#2b2b2b" fill-opacity="1"><g transform="translate(43.144553, 111.200925)"><g><path d="M 38.09375 -53.09375 L 38.5 -50.5 L 7.296875 -10.5 L 8.703125 -13.90625 L 40.5 -13.90625 C 43.226562 -13.90625 44.957031 -14.238281 45.6875 -14.90625 C 46.425781 -15.570312 46.929688 -16.738281 47.203125 -18.40625 L 49.296875 -18.40625 C 49.296875 -14.40625 49.328125 -11.285156 49.390625 -9.046875 C 49.460938 -6.816406 49.566406 -4.832031 49.703125 -3.09375 C 49.234375 -3.226562 48.363281 -3.3125 47.09375 -3.34375 C 45.832031 -3.382812 44.332031 -3.4375 42.59375 -3.5 C 40.863281 -3.5625 39.113281 -3.59375 37.34375 -3.59375 C 35.582031 -3.59375 33.9375 -3.59375 32.40625 -3.59375 L 0.796875 -3.59375 L 0.796875 -5.703125 Z M 39.703125 -53.09375 L 39.703125 14.09375 L 28.09375 14.09375 L 28.09375 -39 L 38.09375 -53.09375 Z M 39.703125 -53.09375 "/></g></g></g></svg>