<svg xmlns="http://www.w3.org/2000/svg" xmlns:xlink="http://www.w3.org/1999/xlink" width="700" zoomAndPan="magnify" viewBox="0 0 525 749.999995" height="1000" preserveAspectRatio="xMidYMid meet" version="1.0"><defs><g/><clipPath id="a02ab51dce"><path d="M 24.75 0 L 500.25 0 C 513.917969 0 525 11.082031 525 24.75 L 525 725.25 C 525 738.917969 513.917969 750 500.25 750 L 24.75 750 C 11.082031 750 0 738.917969 0 725.25 L 0 24.75 C 0 11.082031 11.082031 0 24.75 0 Z M 24.75 0 " clip-rule="nonzero"/></clipPath></defs><g clip-path="url(#a02ab51dce)"><rect x="-52.5" width="630" fill="#eeeeee" y="-74.999999" height="899.999994" fill-opacity="1"/></g><path fill="#2b2b2b" d="M 355.867188 435 C 335.117188 456.621094 301.695312 456.621094 281 435 L 273.871094 427.539062 C 274.519531 434.40625 275.941406 442.515625 278.71875 451.226562 C 283.339844 465.769531 289.925781 476.710938 295.050781 483.902344 L 229.714844 483.902344 C 234.832031 476.710938 241.421875 465.769531 246.050781 451.226562 C 248.828125 442.460938 250.238281 434.40625 250.894531 427.484375 L 243.757812 435 C 223.125 456.621094 189.640625 456.621094 168.957031 435 C 150.382812 415.5625 149.296875 389.53125 161.546875 366.660156 C 185.773438 321.742188 240.710938 282.421875 262.382812 266.085938 C 284.046875 282.421875 338.875 321.742188 363.21875 366.660156 C 375.460938 389.53125 374.375 415.5625 355.867188 435 " fill-opacity="1" fill-rule="nonzero"/><g fill="#2b2b2b" fill-opacity="1"><g transform="translate(51.341817, 111.200874)"><g><path d="M -2.296875 18.796875 L -2.296875 16.796875 C 0.367188 16.535156 2.632812 15.753906 4.5 14.453125 C 6.363281 13.148438 7.796875 10.929688 8.796875 7.796875 C 9.796875 4.660156 10.296875 0.257812 10.296875 -5.40625 L 10.296875 -60.203125 C 10.296875 -62.671875 10.113281 -64.488281 9.75 -65.65625 C 9.382812 -66.820312 8.664062 -67.617188 7.59375 -68.046875 C 6.53125 -68.484375 4.929688 -68.734375 2.796875 -68.796875 L 2.796875 -70.796875 C 4.460938 -70.734375 6.644531 -70.664062 9.34375 -70.59375 C 12.050781 -70.53125 14.90625 -70.5 17.90625 -70.5 C 20.90625 -70.5 23.820312 -70.53125 26.65625 -70.59375 C 29.488281 -70.664062 31.835938 -70.734375 33.703125 -70.796875 L 33.703125 -68.796875 C 31.628906 -68.734375 30.039062 -68.484375 28.9375 -68.046875 C 27.84375 -67.617188 27.113281 -66.820312 26.75 -65.65625 C 26.382812 -64.488281 26.203125 -62.671875 26.203125 -60.203125 L 26.203125 -23.59375 C 26.203125 -20.863281 26.203125 -17.914062 26.203125 -14.75 C 26.203125 -11.582031 26.082031 -8.5 25.84375 -5.5 C 25.613281 -2.5 25.164062 0.164062 24.5 2.5 C 23.164062 7.101562 20.28125 10.96875 15.84375 14.09375 C 11.414062 17.226562 5.367188 18.796875 -2.296875 18.796875 Z M -2.296875 18.796875 "/></g></g></g></svg>