<svg xmlns="http://www.w3.org/2000/svg" xmlns:xlink="http://www.w3.org/1999/xlink" width="700" zoomAndPan="magnify" viewBox="0 0 525 749.999995" height="1000" preserveAspectRatio="xMidYMid meet" version="1.0"><defs><g/><clipPath id="cfb2ef9673"><path d="M 24.75 0 L 500.25 0 C 513.917969 0 525 11.082031 525 24.75 L 525 725.25 C 525 738.917969 513.917969 750 500.25 750 L 24.75 750 C 11.082031 750 0 738.917969 0 725.25 L 0 24.75 C 0 11.082031 11.082031 0 24.75 0 Z M 24.75 0 " clip-rule="nonzero"/></clipPath></defs><g clip-path="url(#cfb2ef9673)"><rect x="-52.5" width="630" fill="#eeeeee" y="-74.999999" height="899.999994" fill-opacity="1"/></g><path fill="#2b2b2b" d="M 355.867188 435 C 335.117188 456.621094 301.695312 456.621094 281 435 L 273.871094 427.539062 C 274.519531 434.40625 275.941406 442.515625 278.71875 451.226562 C 283.339844 465.769531 289.925781 476.710938 295.050781 483.902344 L 229.714844 483.902344 C 234.832031 476.710938 241.421875 465.769531 246.050781 451.226562 C 248.828125 442.460938 250.238281 434.40625 250.894531 427.484375 L 243.757812 435 C 223.125 456.621094 189.640625 456.621094 168.957031 435 C 150.382812 415.5625 149.296875 389.53125 161.546875 366.660156 C 185.773438 321.742188 240.710938 282.421875 262.382812 266.085938 C 284.046875 282.421875 338.875 321.742188 363.21875 366.660156 C 375.460938 389.53125 374.375 415.5625 355.867188 435 " fill-opacity="1" fill-rule="nonzero"/><g fill="#2b2b2b" fill-opacity="1"><g transform="translate(46.595724, 111.200874)"><g><path d="M 38.5 -55.5 C 38.5 -51.101562 38.53125 -47.6875 38.59375 -45.25 C 38.664062 -42.8125 38.769531 -40.628906 38.90625 -38.703125 C 38.363281 -38.835938 37.34375 -38.9375 35.84375 -39 C 34.34375 -39.0625 32.625 -39.109375 30.6875 -39.140625 C 28.757812 -39.179688 26.863281 -39.203125 25 -39.203125 L 9.59375 -39.203125 L 8 -22.09375 C 9.601562 -23.226562 11.65625 -24.175781 14.15625 -24.9375 C 16.65625 -25.707031 19.632812 -26.09375 23.09375 -26.09375 C 27.5625 -26.09375 31.226562 -25.394531 34.09375 -24 C 36.96875 -22.601562 39.101562 -20.703125 40.5 -18.296875 C 41.894531 -15.898438 42.59375 -13.234375 42.59375 -10.296875 C 42.59375 -6.429688 41.441406 -2.96875 39.140625 0.09375 C 36.847656 3.164062 33.765625 5.800781 29.890625 8 C 26.023438 10.195312 21.757812 11.878906 17.09375 13.046875 C 12.425781 14.210938 7.726562 14.796875 3 14.796875 L 3 13 C 6.0625 13 9.078125 12.5 12.046875 11.5 C 15.015625 10.5 17.664062 9.03125 20 7.09375 C 22.332031 5.164062 24.195312 2.800781 25.59375 0 C 27 -2.800781 27.703125 -6.035156 27.703125 -9.703125 C 27.703125 -13.835938 26.734375 -17.035156 24.796875 -19.296875 C 22.867188 -21.566406 20.003906 -22.703125 16.203125 -22.703125 C 14.265625 -22.703125 12.613281 -22.453125 11.25 -21.953125 C 9.882812 -21.453125 8.535156 -20.734375 7.203125 -19.796875 L 5.796875 -20.703125 L 9 -52 C 9.726562 -51.863281 10.578125 -51.757812 11.546875 -51.6875 C 12.515625 -51.625 13.46875 -51.59375 14.40625 -51.59375 L 30.90625 -51.59375 C 32.832031 -51.59375 34.175781 -51.894531 34.9375 -52.5 C 35.707031 -53.101562 36.195312 -54.101562 36.40625 -55.5 Z M 38.5 -55.5 "/></g></g></g></svg>